<?xml version="1.0" encoding="utf-8"?>
<!-- Generator: Adobe Illustrator 19.1.0, SVG Export Plug-In . SVG Version: 6.00 Build 0)  -->
<svg version="1.1" id="Layer_1" xmlns="http://www.w3.org/2000/svg" xmlns:xlink="http://www.w3.org/1999/xlink" x="0px" y="0px"
	 viewBox="-512 481 46 552.1" style="enable-background:new -512 481 46 552.1;" xml:space="preserve">
<polygon points="-466,529.1 -512,503.8 -512,485.7 -466,511.3 "/>
<polygon points="-466,569.9 -512,544.6 -512,526.5 -466,552.1 "/>
<polygon points="-466,610.8 -512,585.5 -512,567.4 -466,592.9 "/>
<polygon points="-466,651.6 -512,626.3 -512,608.2 -466,633.8 "/>
<polygon points="-466,692.4 -512,667.1 -512,649 -466,674.6 "/>
<polygon points="-466,733.2 -512,707.9 -512,689.8 -466,715.4 "/>
<polygon points="-466,774.1 -512,748.8 -512,730.7 -466,756.2 "/>
<polygon points="-466,814.9 -512,789.6 -512,771.5 -466,797.1 "/>
<polygon points="-466,855.7 -512,830.4 -512,812.3 -466,837.9 "/>
<polygon points="-466,896.5 -512,871.2 -512,853.1 -466,878.7 "/>
<polygon points="-466,937.4 -512,912.1 -512,894 -466,919.5 "/>
<polygon points="-466,978.2 -512,952.9 -512,934.8 -466,960.4 "/>
<polygon points="-466,1019 -512,993.7 -512,975.6 -466,1001.2 "/>
<polygon points="-506,1037.8 -512,1034.5 -512,1016.4 -474.3,1037.8 "/>
</svg>
