<?xml version="1.0" encoding="utf-8"?>
<!-- Generator: Adobe Illustrator 19.1.0, SVG Export Plug-In . SVG Version: 6.00 Build 0)  -->
<svg version="1.1" id="Layer_1" xmlns="http://www.w3.org/2000/svg" xmlns:xlink="http://www.w3.org/1999/xlink" x="0px" y="0px"
	 viewBox="0 0 450 355" style="enable-background:new 0 0 450 355;" xml:space="preserve">
<style type="text/css">
	.st0{clip-path:url(#SVGID_2_);fill:#0E4E96;}
	.st1{clip-path:url(#SVGID_2_);fill:none;stroke:#2E3B42;stroke-width:18.182;}
	.st2{clip-path:url(#SVGID_2_);fill:#FFFFFF;}
	.st3{fill:#FFFFFF;}
	.st4{font-family:'DispatchCond-Bold';}
	.st5{font-size:107.3592px;}
	.st6{font-size:47.7152px;}
	.st7{letter-spacing:2;}
</style>
<g>
	<defs>
		<rect id="SVGID_1_" width="450" height="355"/>
	</defs>
	<clipPath id="SVGID_2_">
		<use xlink:href="#SVGID_1_"  style="overflow:visible;"/>
	</clipPath>
	<path class="st0" d="M40.3,9.1c0,0-31.2,0-31.2,31.2v274.5c0,0,0,31.2,31.2,31.2h369.5c0,0,31.2,0,31.2-31.2V40.3
		c0,0,0-31.2-31.2-31.2H40.3z"/>
	<path class="st1" d="M40.3,9.1c0,0-31.2,0-31.2,31.2v274.5c0,0,0,31.2,31.2,31.2h369.5c0,0,31.2,0,31.2-31.2V40.3
		c0,0,0-31.2-31.2-31.2H40.3z"/>
	<path class="st2" d="M82.5,195c0.1,29.2,13.8,43.8,41.1,43.8h141.9v-38h-123c-12.6,0-19.1-5.8-19.1-19.3v-74.2
		c0.1-11.2,5.4-16.9,15.9-16.9h65.6l-15.1-37.2l-66.2,0.1c-27.3,0-40.9,13.4-40.9,40.2v0.3L82.5,195z"/>
	<path class="st2" d="M358.2,53.3H285c-27.3,0-40.9,13.5-40.9,40.5v40.3c0,22.6,10.5,33.9,31.6,33.9H323c6.2-0.1,9.4,3.3,9.4,10.1
		v13.2c0,6.7-3.5,9.5-9.9,9.5h-75l-3.3,38h91.3c27.3,0,40.9-14.6,40.9-43.8v-30.4c-0.1-24.7-10.6-37.1-31.6-37l-44.1-0.1
		c-8.4,0-12.6-4.5-12.6-13.5l0.1-6.7c0-9.1,4.2-13.6,12.5-13.5h72.4L358.2,53.3z"/>
</g>
<text transform="matrix(1 0 0 1.0683 160.5 203.2354)" class="st3 st4 st5">&amp;</text>
<text transform="matrix(1 0 0 1.0683 82.5 296.2393)"><tspan x="0" y="0" class="st3 st4 st6 st7">UNLI</tspan><tspan x="128.3" y="0" class="st3 st4 st6 st7">M</tspan><tspan x="172" y="0" class="st3 st4 st6 st7">ITE</tspan><tspan x="261.3" y="0" class="st3 st4 st6">D</tspan></text>
</svg>
