<?xml version="1.0" encoding="utf-8"?>
<!-- Generator: Adobe Illustrator 19.1.0, SVG Export Plug-In . SVG Version: 6.00 Build 0)  -->
<svg version="1.1" id="Layer_1" xmlns="http://www.w3.org/2000/svg" xmlns:xlink="http://www.w3.org/1999/xlink" x="0px" y="0px"
	 viewBox="-242 427 475 292.6" style="enable-background:new -242 427 475 292.6;" xml:space="preserve">
<style type="text/css">
	.st0{clip-path:url(#SVGID_2_);fill:none;stroke:#231F20;stroke-width:30.861;}
	.st1{fill:#6B0000;}
	.st2{fill:#D1232A;}
	.st3{clip-path:url(#SVGID_4_);fill:#929497;}
	.st4{fill:#A6A8AB;}
	.st5{clip-path:url(#SVGID_6_);fill:#626366;}
	.st6{clip-path:url(#SVGID_8_);fill:#A6A8AB;}
	.st7{clip-path:url(#SVGID_10_);fill:#A6A8AB;}
	.st8{clip-path:url(#SVGID_12_);fill:#D1232A;}
	.st9{clip-path:url(#SVGID_14_);fill:#A6A8AB;}
	.st10{clip-path:url(#SVGID_16_);fill:#D1232A;}
	.st11{clip-path:url(#SVGID_18_);fill:#A6A8AB;}
	.st12{clip-path:url(#SVGID_20_);fill:#D1232A;}
	.st13{clip-path:url(#SVGID_22_);fill:#A6A8AB;}
	.st14{clip-path:url(#SVGID_24_);fill:#404041;}
	.st15{clip-path:url(#SVGID_26_);}
	.st16{fill:#FFFFFF;}
	.st17{clip-path:url(#SVGID_28_);}
</style>
<g>
	<g>
		<g>
			<defs>
				<rect id="SVGID_1_" x="-242" y="427" width="475" height="292.6"/>
			</defs>
			<clipPath id="SVGID_2_">
				<use xlink:href="#SVGID_1_"  style="overflow:visible;"/>
			</clipPath>
			<path class="st0" d="M21.1,638.6c0,0-6.7,10.2-19.4,1.1c-12.7-9-15.5-20.5-10.4-25.2c5.2-4.7,10.8-10,16.8-17
				c7.4-8.7,19.7-16.2,19.4-24.9c-0.3-8.7-4.5-9.5-16.8-10.3s-22.6,0.8-22.6,0.8"/>
		</g>
	</g>
</g>
<polygon class="st1" points="-240.8,691.1 -113.2,719.6 -113.2,536.3 -242,533.9 "/>
<polygon class="st2" points="4.4,682.5 5.7,533.9 -114,536.3 -113.2,718.4 "/>
<polygon class="st1" points="-241.5,534.4 -114,538 5.2,534.4 -113.6,528.9 "/>
<g>
	<g>
		<g>
			<defs>
				<rect id="SVGID_3_" x="-242" y="427" width="475" height="292.6"/>
			</defs>
			<clipPath id="SVGID_4_">
				<use xlink:href="#SVGID_3_"  style="overflow:visible;"/>
			</clipPath>
			<path class="st3" d="M-136.5,520.6V533c0,0,14.3,2.1,20.5,2.1s21.1-2.1,21.1-2.1v-12.4H-136.5z"/>
		</g>
	</g>
</g>
<rect x="-123.1" y="458.1" class="st4" width="16.3" height="63"/>
<g>
	<g>
		<g>
			<defs>
				<rect id="SVGID_5_" x="-242" y="427" width="475" height="292.6"/>
			</defs>
			<clipPath id="SVGID_6_">
				<use xlink:href="#SVGID_5_"  style="overflow:visible;"/>
			</clipPath>
			<path class="st5" d="M-173,442.9l118.8-15.8v29.2l-116.5,9.3c0,0-7.9-0.4-8.9-9.3C-180.6,447.3-173,442.9-173,442.9"/>
		</g>
	</g>
</g>
<polygon class="st1" points="160.7,713.2 98.8,687.4 36.4,633.4 49,619.5 174.1,667.6 "/>
<polygon class="st1" points="205.3,711.2 160.4,680.5 154.2,658.2 177.5,647.3 217.6,665.5 "/>
<g>
	<g>
		<g>
			<defs>
				<rect id="SVGID_7_" x="-242" y="427" width="475" height="292.6"/>
			</defs>
			<clipPath id="SVGID_8_">
				<use xlink:href="#SVGID_7_"  style="overflow:visible;"/>
			</clipPath>
			<path class="st6" d="M211.7,711.6c11.8,0,21.3-10.4,21.3-23.3c0-12.9-9.5-23.3-21.3-23.3s-21.3,10.4-21.3,23.3
				C190.4,701.1,199.9,711.6,211.7,711.6"/>
		</g>
	</g>
	<g>
		<g>
			<defs>
				<rect id="SVGID_9_" x="-242" y="427" width="475" height="292.6"/>
			</defs>
			<clipPath id="SVGID_10_">
				<use xlink:href="#SVGID_9_"  style="overflow:visible;"/>
			</clipPath>
			<path class="st7" d="M164.9,713.7c11.8,0,21.3-10.4,21.3-23.3s-9.5-23.3-21.3-23.3s-21.3,10.4-21.3,23.3
				C143.6,703.3,153.2,713.7,164.9,713.7"/>
		</g>
	</g>
	<g>
		<g>
			<defs>
				<rect id="SVGID_11_" x="-242" y="427" width="475" height="292.6"/>
			</defs>
			<clipPath id="SVGID_12_">
				<use xlink:href="#SVGID_11_"  style="overflow:visible;"/>
			</clipPath>
			<path class="st8" d="M113.6,716.6L20,654.2c0,0-0.1-13.4,4.2-19.3c4.3-5.9,19.1-6.9,19.1-6.9l84.1,43.1L113.6,716.6z"/>
		</g>
	</g>
	<g>
		<g>
			<defs>
				<rect id="SVGID_13_" x="-242" y="427" width="475" height="292.6"/>
			</defs>
			<clipPath id="SVGID_14_">
				<use xlink:href="#SVGID_13_"  style="overflow:visible;"/>
			</clipPath>
			<path class="st9" d="M119.3,716.8c11.8,0,21.3-10.4,21.3-23.3c0-12.9-9.5-23.3-21.3-23.3S98,680.6,98,693.5
				C98,706.3,107.5,716.8,119.3,716.8"/>
		</g>
	</g>
	<g>
		<g>
			<defs>
				<rect id="SVGID_15_" x="-242" y="427" width="475" height="292.6"/>
			</defs>
			<clipPath id="SVGID_16_">
				<use xlink:href="#SVGID_15_"  style="overflow:visible;"/>
			</clipPath>
			<path class="st10" d="M188.9,671.7L73,615.1c0,0,10.7-14.1,15.8-17.3c5.5-3.5,16.8,0,16.8,0l95.1,30.6L188.9,671.7z"/>
		</g>
	</g>
	<g>
		<g>
			<defs>
				<rect id="SVGID_17_" x="-242" y="427" width="475" height="292.6"/>
			</defs>
			<clipPath id="SVGID_18_">
				<use xlink:href="#SVGID_17_"  style="overflow:visible;"/>
			</clipPath>
			<path class="st11" d="M191.4,672.1c11.8,0,21.3-10.4,21.3-23.3c0-12.9-9.5-23.3-21.3-23.3s-21.3,10.4-21.3,23.3
				C170.1,661.6,179.6,672.1,191.4,672.1"/>
		</g>
	</g>
	<g>
		<g>
			<defs>
				<rect id="SVGID_19_" x="-242" y="427" width="475" height="292.6"/>
			</defs>
			<clipPath id="SVGID_20_">
				<use xlink:href="#SVGID_19_"  style="overflow:visible;"/>
			</clipPath>
			<path class="st12" d="M141.4,673.8L43.3,625c0,0-5.9-10.4-1.5-18.8c4.5-8.4,18.3-9.9,18.3-9.9l91.1,32.1L141.4,673.8z"/>
		</g>
	</g>
	<g>
		<g>
			<defs>
				<rect id="SVGID_21_" x="-242" y="427" width="475" height="292.6"/>
			</defs>
			<clipPath id="SVGID_22_">
				<use xlink:href="#SVGID_21_"  style="overflow:visible;"/>
			</clipPath>
			<path class="st13" d="M145.4,674.1c11.8,0,21.3-10.4,21.3-23.3c0-12.9-9.5-23.3-21.3-23.3s-21.3,10.4-21.3,23.3
				C124.1,663.7,133.6,674.1,145.4,674.1"/>
		</g>
	</g>
	<g>
		<g>
			<defs>
				<rect id="SVGID_23_" x="-242" y="427" width="475" height="292.6"/>
			</defs>
			<clipPath id="SVGID_24_">
				<use xlink:href="#SVGID_23_"  style="overflow:visible;"/>
			</clipPath>
			<path class="st14" d="M-54.3,455.8c5.5,0,9.9-6.2,9.9-13.9s-4.4-13.9-9.9-13.9s-9.9,6.2-9.9,13.9
				C-64.2,449.6-59.8,455.8-54.3,455.8"/>
		</g>
	</g>
	<g>
		<g>
			<defs>
				<rect id="SVGID_25_" x="-242" y="427" width="475" height="292.6"/>
			</defs>
			<clipPath id="SVGID_26_">
				<use xlink:href="#SVGID_25_"  style="overflow:visible;"/>
			</clipPath>
			<g class="st15">
				<path class="st16" d="M-230.7,635.2v-34l7.1,0.8v28.1l13.6,1.4v6L-230.7,635.2z"/>
				<path class="st16" d="M-186.5,639.8l-19.4-2v-34l19.4,2v5.9l-12.2-1.3v7.5l11.4,1.2v5.9l-11.4-1.2v8.8l12.2,1.3V639.8z"/>
				<path class="st16" d="M-166.5,641.9l-7.1-0.8v-28l-9.1-1v-6l25.4,2.7v6l-9.1-1L-166.5,641.9L-166.5,641.9z"/>
				<path class="st16" d="M-148,609.8l0.3,0.5c-0.8,3-2.1,6.5-4.1,10.7l-5-0.5c1.1-4.5,1.8-8.3,2.3-11.4L-148,609.8z"/>
				<path class="st16" d="M-124,636.9c0,3.1-1.1,5.4-3.3,6.9c-2.2,1.5-5.2,2.1-9.1,1.7c-3.6-0.4-6.8-1.4-9.5-3v-6.7
					c2.3,1.3,4.2,2.2,5.8,2.8s3,0.9,4.3,1.1c1.6,0.2,2.8,0,3.6-0.5s1.3-1.4,1.3-2.6c0-0.7-0.2-1.3-0.6-1.8s-0.9-1.1-1.6-1.7
					s-2.2-1.5-4.4-2.8c-2.1-1.2-3.6-2.3-4.6-3.3s-1.8-2.1-2.5-3.4c-0.6-1.3-0.9-2.7-0.9-4.3c0-3,1-5.3,3-6.8s4.8-2.1,8.4-1.7
					c1.7,0.2,3.4,0.6,5,1.2c1.6,0.6,3.2,1.3,5,2.3l-2.3,5.4c-1.8-0.9-3.3-1.6-4.5-2s-2.3-0.7-3.5-0.8c-1.4-0.1-2.4,0.1-3.1,0.6
					c-0.7,0.6-1.1,1.4-1.1,2.4c0,0.6,0.1,1.2,0.4,1.7s0.8,1,1.4,1.5s2.1,1.5,4.5,2.9c3.1,1.9,5.3,3.6,6.5,5.3
					C-124.5,632.8-124,634.7-124,636.9z"/>
			</g>
		</g>
	</g>
	<g>
		<g>
			<defs>
				<rect id="SVGID_27_" x="-242" y="427" width="475" height="292.6"/>
			</defs>
			<clipPath id="SVGID_28_">
				<use xlink:href="#SVGID_27_"  style="overflow:visible;"/>
			</clipPath>
			<g class="st17">
				<path class="st16" d="M-78.5,625.3c0,5.6-1.6,10.1-4.7,13.4c-3.2,3.3-7.7,5.3-13.7,5.9l-9.5,1v-34l10.6-1.1
					c5.5-0.6,9.8,0.4,12.8,3.1C-80,616.1-78.5,620.1-78.5,625.3z M-85.9,626.3c0-7.3-3.2-10.6-9.6-10l-3.8,0.4v22.2l3.1-0.3
					C-89.3,637.9-85.9,633.8-85.9,626.3z"/>
				<path class="st16" d="M-45.7,622.2c0,5.6-1.4,10.1-4.1,13.4c-2.8,3.3-6.7,5.2-11.9,5.8s-9.1-0.6-11.9-3.3s-4.1-6.9-4.1-12.6
					s1.4-10.1,4.2-13.4c2.8-3.3,6.7-5.2,11.9-5.7c5.2-0.5,9.1,0.5,11.9,3.3C-46.9,612.5-45.7,616.5-45.7,622.2z M-70.2,624.7
					c0,3.8,0.7,6.6,2.1,8.4c1.4,1.8,3.6,2.5,6.4,2.2c5.7-0.6,8.5-4.7,8.5-12.4s-2.8-11.2-8.5-10.6c-2.8,0.3-5,1.5-6.4,3.6
					S-70.2,620.9-70.2,624.7z"/>
				<path class="st16" d="M-32,637.8v-34l7.1-0.8v34L-32,637.8z"/>
				<path class="st16" d="M-6.3,635.1l-7.1,0.8v-28l-9.1,1v-6l25.4-2.7v6l-9.1,1L-6.3,635.1L-6.3,635.1z"/>
			</g>
		</g>
	</g>
</g>
</svg>
