<?xml version="1.0" encoding="utf-8"?>
<!-- Generator: Adobe Illustrator 19.1.0, SVG Export Plug-In . SVG Version: 6.00 Build 0)  -->
<svg version="1.1" id="Layer_1" xmlns="http://www.w3.org/2000/svg" xmlns:xlink="http://www.w3.org/1999/xlink" x="0px" y="0px"
	 viewBox="-451.9 354 41.5 143.2" style="enable-background:new -451.9 354 41.5 143.2;" xml:space="preserve">
<style type="text/css">
	.st0{fill:#9C1C1F;}
</style>
<polygon points="-419,353.9 -410.4,368 -421.8,455.8 -440,455.4 -444.7,452.8 "/>
<path d="M-443.9,467.1c3.4-3.4,7.5-5.1,12.2-5.2c4.7,0,8.8,1.7,12.2,5.1s5.1,7.5,5.2,12.2c0,4.7-1.7,8.8-5,12.1
	c-3.4,3.3-7.4,5-12.3,5.1c-4.7,0-8.8-1.7-12.2-5c-3.4-3.3-5.1-7.4-5.2-12.1C-449.1,474.6-447.3,470.6-443.9,467.1"/>
<g>
	<path class="st0" d="M-446.7,467.9c3.4-3.4,7.5-5.1,12.2-5.2c4.7,0,8.8,1.7,12.2,5.1c3.4,3.4,5.1,7.5,5.2,12.2
		c0,4.7-1.7,8.8-5,12.1c-3.4,3.3-7.5,5-12.3,5.1c-4.7,0-8.8-1.7-12.2-5c-3.4-3.3-5.1-7.4-5.2-12.1
		C-451.9,475.4-450.1,471.3-446.7,467.9 M-444.7,452.8l19.9-0.5l6.4-98.3l-31.9,0.4L-444.7,452.8z"/>
</g>
</svg>
