<?xml version="1.0" encoding="utf-8"?>
<!-- Generator: Adobe Illustrator 19.1.0, SVG Export Plug-In . SVG Version: 6.00 Build 0)  -->
<svg version="1.1" id="Layer_1" xmlns="http://www.w3.org/2000/svg" xmlns:xlink="http://www.w3.org/1999/xlink" x="0px" y="0px"
	 viewBox="-188 761.9 577.4 138.8" style="enable-background:new -188 761.9 577.4 138.8;" xml:space="preserve">
<style type="text/css">
	.st0{fill:#9C1C1F;}
</style>
<polygon points="201.1,761.9 210.9,775.2 207,863.6 188.8,864.8 183.9,862.6 "/>
<path d="M185.9,876.8c3.1-3.7,7-5.7,11.7-6.2c4.7-0.4,8.9,0.9,12.6,4s5.7,7,6.2,11.7c0.4,4.7-0.9,8.9-4,12.5s-7,5.6-11.8,6.1
	c-4.7,0.4-8.9-0.9-12.6-3.9s-5.7-6.9-6.2-11.6C181.4,884.7,182.8,880.5,185.9,876.8"/>
<g>
	<path d="M341,803.8l-3.5,91l3.5,3.2l20.7,1.9l-3.2-27H376c2.6,0,4.8-0.3,6.5-1s3.1-1.5,4.2-2.7c1-1.1,1.8-2.4,2.1-4
		c0.4-1.5,0.6-3.2,0.6-5v-44.9c0-3.5-0.9-6.2-2.8-8.3c-1.9-2.1-4.7-3.1-8.4-3.1L341,803.8L341,803.8z M369.2,820.3
		c1.1,0,1.7,0.6,1.7,1.8v33.3c0,0.7-0.1,1.2-0.3,1.5s-0.7,0.5-1.5,0.5l-8.7-8.4l-3.2-28.6L369.2,820.3L369.2,820.3z M318.6,898.1
		c5.5,0,9.3-1.1,11.4-3.4c2.2-2.3,3.2-6,3.2-11.2v-86.2l-19.2,6.5v75.7c0,0.7-0.1,1.2-0.3,1.6c-0.2,0.3-0.7,0.5-1.5,0.5h-6.6
		c-0.8,0-5.7-28-5.7-28.7l7.8-49h-23.1v79.7c0,5.2,1.1,8.9,3.2,11.2c2.2,2.3,6,3.4,11.4,3.4L318.6,898.1L318.6,898.1z M210.7,808.9
		l8.1,12.5h12.6l-7.1,73.2l7.1,3.5h19.2v-76.7h12.6l-11.8-18.1l3-2.7L210.7,808.9z M173.5,811.6l-3.6-14.3l-15.6,6.5v40.3H144
		l5.2-35.1l-9.3-8.5l-15.2,3.2l-8.5,94.2H144v-37.5h10.3v37.7h21.2L173.5,811.6z M102.6,898.1c5.4,0,9.1-1.1,11.2-3.2
		c2.1-2.2,3.2-5.8,3.2-11v-31.2c0-3.6-0.8-6-2.4-7.5c-1.6-1.4-3.9-2.1-7-2.1H95.8c-1,0-1.7-0.2-2.1-0.5c-0.5-0.3-0.7-1-0.7-1.9
		v-17.2c0-1.4,0.8-2.1,2.3-2.1h21.3l-3.2-17.5l-4.9-9.8l-21.1,9.8c-4.4,0-7.6,1.1-9.7,3.3c-2,2.2-3.1,5.2-3.1,8.9v32
		c0,2.3,0.3,4.2,0.8,5.6c0.6,1.4,1.3,2.5,2.3,3.2c1,0.8,2.1,1.3,3.4,1.5s2.6,0.3,4,0.3h9.8c1.3,0,2.2,0.1,2.7,0.4s0.8,1,0.8,2.3
		v17.2c0,1.3-0.7,1.9-2.2,1.9H75.9L69.5,898L102.6,898.1L102.6,898.1z M27.9,858.7l-7.5-54.9l-3.9-3.2l-9.8,3.2L-1,858.7l-6-54.9
		l-6.5,2.6L-26.6,796l11.2,98.8l4,3.2l21.1-3.2l3.8-45.9l7.8,49.1h17.2l14.8-94.2l-6.1-8.5L34,803.8L27.9,858.7z M-31.3,816
		c0-3.7-1-6.7-3.1-8.9c-2-2.2-5.3-3.3-9.7-3.3h-23.4c-4.4,0-7.6,1.1-9.7,3.3c-2,2.2-3.1,5.2-3.1,8.9v68.6c0,1.8,0.2,3.5,0.7,5.1
		c0.4,1.6,1.2,3,2.2,4.2s2.4,2.2,4.2,2.9c1.7,0.7,3.9,1.1,6.5,1.1h21.8c2.6,0,4.8-0.4,6.5-1.1s3.1-1.7,4.2-2.9
		c1-1.2,1.8-2.6,2.2-4.2c0.4-1.6,2.6-40.4,2.6-42.2L-31.3,816z M-52.1,820.3c1.1,0,1.7,0.6,1.7,1.8l-7.2,36c0,0.7,7,22.6,6.8,22.9
		s-0.7,0.5-1.5,0.5h-7.2c-0.8,0-1.3-0.2-1.5-0.5s-0.3-0.8-0.3-1.5v-57.3c0-1.2,0.6-1.8,1.7-1.8L-52.1,820.3L-52.1,820.3z
		 M-124.4,900.7l35.1-2.6l3.2-17.5l-4.2-6.5l-14.8,6.5v-76.8l-3.9-3.2l-15.5,3.2l-4,91L-124.4,900.7z M-133.1,815.3
		c0-3.5-0.9-6.2-2.8-8.3c-1.9-2.1-4.7-3.1-8.4-3.1h-36.8l-3.4,91l3.4,3.3h34.2c5.5,0,9.3-1.1,11.4-3.4c2.2-2.3,3.2-6,3.2-11.2v-24.5
		c0-2.1-0.6-3.9-1.8-5.6c-1.2-1.6-3.1-2.6-5.7-2.7c2.5-0.7,4.2-1.9,5.1-3.6c0.9-1.7,1.4-3.7,1.4-6v-25.9H-133.1L-133.1,815.3z
		 M-150.9,879.6c0,0.7-0.1,1.2-0.4,1.5s-0.8,0.5-1.6,0.5h-9.5l2.6-15.7l6-6.5c0.9,0,1.6,0.2,2.1,0.6c0.5,0.4,0.8,1.1,0.8,2.1
		L-150.9,879.6L-150.9,879.6z M-152.9,820.3c1.1,0,1.7,0.6,1.7,1.8v20.4c0,0.9-0.2,1.5-0.6,1.9c-0.4,0.4-1,0.6-1.7,0.6h-8.8
		l-3.2-27.3L-152.9,820.3z"/>
	<path class="st0" d="M337.2,800.6v94.2h18.7v-25.1H372c2.6,0,4.8-0.3,6.5-1s3.1-1.5,4.2-2.7c1-1.1,1.8-2.4,2.1-4
		c0.4-1.5,0.6-3.2,0.6-5v-45c0-3.5-0.9-6.2-2.8-8.3c-1.9-2.1-4.7-3.1-8.4-3.1L337.2,800.6L337.2,800.6z M365.4,817.1
		c1.1,0,1.7,0.6,1.7,1.8v33.3c0,0.7-0.1,1.2-0.3,1.5s-0.7,0.5-1.5,0.5h-9.4v-37L365.4,817.1L365.4,817.1L365.4,817.1z M314.7,894.8
		c5.5,0,9.3-1.1,11.4-3.4c2.2-2.3,3.2-6,3.2-11.2v-79.6h-19.2v75.7c0,0.7-0.1,1.2-0.3,1.6c-0.2,0.3-0.7,0.5-1.5,0.5h-6.6
		c-0.8,0-1.3-0.2-1.5-0.5s-0.3-0.9-0.3-1.6v-75.7h-19.2v79.7c0,5.2,1.1,8.9,3.2,11.2c2.2,2.3,6,3.4,11.4,3.4L314.7,894.8
		L314.7,894.8z M219.8,800.6l-4.9,17.5h12.6v76.7h19.2v-76.7h12.6l-4.7-17.5H219.8z M169.6,800.6h-19.2v40.3h-10.3v-40.3h-19.2v94.2
		h19.2v-37.7h10.3v37.7h19.2V800.6z M98.7,894.8c5.4,0,9.1-1.1,11.2-3.2c2.1-2.2,3.2-5.8,3.2-11v-31.1c0-3.6-0.8-6-2.4-7.5
		c-1.6-1.4-3.9-2.1-7-2.1H91.9c-1,0-1.7-0.2-2.1-0.5c-0.5-0.3-0.7-1-0.7-1.9v-17.3c0-1.4,0.8-2.1,2.3-2.1h21.3l-3.2-17.5h-26
		c-4.4,0-7.6,1.1-9.7,3.3c-2,2.2-3.1,5.2-3.1,8.9v32c0,2.3,0.3,4.2,0.8,5.6c0.6,1.4,1.3,2.5,2.3,3.2c1,0.8,2.1,1.3,3.4,1.5
		s2.6,0.3,4,0.3H91c1.3,0,2.2,0.1,2.7,0.4s0.8,1,0.8,2.3v17.2c0,1.3-0.7,1.9-2.2,1.9H72l3.4,17.5L98.7,894.8L98.7,894.8z M24,855.4
		l-7.5-54.9H2.8l-7.7,54.9l-6-54.9H-30l14.8,94.2H2l7.7-49.1l7.8,49.1h17.2l14.8-94.2H30.3L24,855.4z M-35.2,812.8
		c0-3.7-1-6.7-3.1-8.9c-2-2.2-5.3-3.3-9.7-3.3h-23.4c-4.4,0-7.6,1.1-9.7,3.3c-2,2.2-3.1,5.2-3.1,8.9v68.6c0,1.8,0.2,3.5,0.7,5.1
		c0.4,1.6,1.2,3,2.2,4.2s2.4,2.2,4.2,2.9c1.7,0.7,3.9,1.1,6.5,1.1h21.8c2.6,0,4.8-0.4,6.5-1.1s3.1-1.7,4.2-2.9
		c1-1.2,1.8-2.6,2.2-4.2c0.4-1.6,0.6-3.3,0.6-5.1v-68.6H-35.2z M-56,817.1c1.1,0,1.7,0.6,1.7,1.8v57.5c0,0.7-0.1,1.2-0.3,1.5
		s-0.7,0.5-1.5,0.5h-7.2c-0.8,0-1.3-0.2-1.5-0.5s-0.3-0.8-0.3-1.5v-57.5c0-1.2,0.6-1.8,1.7-1.8H-56z M-128.3,894.8h35.1l3.2-17.5
		h-19v-76.7h-19.3V894.8z M-137,812c0-3.5-0.9-6.2-2.8-8.3c-1.9-2.1-4.7-3.1-8.4-3.1H-185v94.2h34.2c5.5,0,9.3-1.1,11.4-3.4
		c2.2-2.3,3.2-6,3.2-11.2v-24.4c0-2.1-0.6-3.9-1.8-5.6c-1.2-1.6-3.1-2.6-5.7-2.7c2.5-0.7,4.2-1.9,5.1-3.6c0.9-1.7,1.4-3.7,1.4-6V812
		H-137L-137,812z M-154.8,876.4c0,0.7-0.1,1.2-0.4,1.5s-0.8,0.5-1.6,0.5h-9.5v-22.3h8.6c0.9,0,1.6,0.2,2.1,0.6
		c0.5,0.4,0.8,1.1,0.8,2.1V876.4L-154.8,876.4z M-156.8,817.1c1.1,0,1.7,0.6,1.7,1.8v20.4c0,0.9-0.2,1.5-0.6,1.9
		c-0.4,0.4-1,0.6-1.7,0.6h-8.8v-24.7H-156.8z"/>
	<path class="st0" d="M183.2,877.8c3.1-3.7,7-5.7,11.7-6.2c4.7-0.4,8.9,0.9,12.6,4s5.7,7,6.2,11.7c0.4,4.7-0.9,8.9-4,12.5
		s-7,5.6-11.8,6.1c-4.7,0.4-8.9-0.9-12.6-3.9s-5.7-6.9-6.2-11.6C178.7,885.7,180.1,881.5,183.2,877.8 M183.9,862.6l19.8-2.2l-2-98.5
		l-31.8,3.1L183.9,862.6z"/>
</g>
</svg>
