<?xml version="1.0" encoding="utf-8"?>
<!-- Generator: Adobe Illustrator 19.1.0, SVG Export Plug-In . SVG Version: 6.00 Build 0)  -->
<svg version="1.1" id="Layer_1" xmlns="http://www.w3.org/2000/svg" xmlns:xlink="http://www.w3.org/1999/xlink" x="0px" y="0px"
	 viewBox="-446.6 783.5 52.2 99.3" style="enable-background:new -446.6 783.5 52.2 99.3;" xml:space="preserve">
<style type="text/css">
	.st0{fill:#9C1C1F;}
</style>
<g>
	<path d="M-442.7,786.7l-3.5,91l3.5,3.2l20.7,1.9l-3.2-27h17.4c2.6,0,4.8-0.3,6.5-1c1.7-0.7,3.1-1.5,4.2-2.7c1-1.1,1.8-2.4,2.1-4
		c0.4-1.5,0.6-3.2,0.6-5v-44.9c0-3.5-0.9-6.2-2.8-8.3s-4.7-3.1-8.4-3.1L-442.7,786.7L-442.7,786.7z M-414.5,803.2
		c1.1,0,1.7,0.6,1.7,1.8v33.3c0,0.7-0.1,1.2-0.3,1.5s-0.7,0.5-1.5,0.5l-8.7-8.4l-3.2-28.6L-414.5,803.2L-414.5,803.2z"/>
	<path class="st0" d="M-446.6,783.5v94.2h18.7v-25.1h16.1c2.6,0,4.8-0.3,6.5-1c1.7-0.7,3.1-1.5,4.2-2.7c1-1.1,1.8-2.4,2.1-4
		c0.4-1.5,0.6-3.2,0.6-5v-45c0-3.5-0.9-6.2-2.8-8.3s-4.7-3.1-8.4-3.1H-446.6L-446.6,783.5z M-418.4,800c1.1,0,1.7,0.6,1.7,1.8v33.3
		c0,0.7-0.1,1.2-0.3,1.5s-0.7,0.5-1.5,0.5h-9.4v-37L-418.4,800L-418.4,800L-418.4,800z"/>
</g>
</svg>
