<?xml version="1.0" encoding="utf-8"?>
<!-- Generator: Adobe Illustrator 19.1.0, SVG Export Plug-In . SVG Version: 6.00 Build 0)  -->
<svg version="1.1" id="Layer_1" xmlns="http://www.w3.org/2000/svg" xmlns:xlink="http://www.w3.org/1999/xlink" x="0px" y="0px"
	 viewBox="-458 209.8 41.5 143.2" style="enable-background:new -458 209.8 41.5 143.2;" xml:space="preserve">
<style type="text/css">
	.st0{fill:#9C1C1F;}
</style>
<polygon points="-425.1,209.7 -416.5,223.8 -427.9,311.6 -446.1,311.2 -450.8,308.6 "/>
<path d="M-450,323c3.4-3.4,7.5-5.1,12.2-5.2c4.7,0,8.8,1.7,12.2,5.1c3.4,3.4,5.1,7.5,5.2,12.2c0,4.7-1.7,8.8-5,12.1
	c-3.4,3.3-7.4,5-12.3,5.1c-4.7,0-8.8-1.7-12.2-5c-3.4-3.3-5.1-7.4-5.2-12.1C-455.2,330.5-453.4,326.5-450,323"/>
<g>
	<path class="st0" d="M-452.8,323.8c3.4-3.4,7.5-5.1,12.2-5.2c4.7,0,8.8,1.7,12.2,5.1c3.4,3.4,5.1,7.5,5.2,12.2
		c0,4.7-1.7,8.8-5,12.1c-3.4,3.3-7.5,5-12.3,5.1c-4.7,0-8.8-1.7-12.2-5c-3.4-3.3-5.1-7.4-5.2-12.1S-456.2,327.1-452.8,323.8
		 M-450.8,308.6l19.9-0.5l6.4-98.3l-31.9,0.4L-450.8,308.6z"/>
</g>
</svg>
