<?xml version="1.0" encoding="utf-8"?>
<!-- Generator: Adobe Illustrator 19.1.0, SVG Export Plug-In . SVG Version: 6.00 Build 0)  -->
<svg version="1.1" id="Layer_1" xmlns="http://www.w3.org/2000/svg" xmlns:xlink="http://www.w3.org/1999/xlink" x="0px" y="0px"
	 viewBox="-452 232.5 53.2 97.5" style="enable-background:new -452 232.5 53.2 97.5;" xml:space="preserve">
<style type="text/css">
	.st0{fill:#9C1C1F;}
</style>
<g>
	<path d="M-399.8,247.2c0-3.5-0.9-6.2-2.8-8.3s-4.7-3.1-8.4-3.1h-36.8l-3.4,91l3.4,3.3h34.2c5.5,0,9.3-1.1,11.4-3.4
		c2.2-2.3,3.2-6,3.2-11.2V291c0-2.1-0.6-3.9-1.8-5.6c-1.2-1.6-3.1-2.6-5.7-2.7c2.5-0.7,4.2-1.9,5.1-3.6s1.4-3.7,1.4-6v-25.9
		L-399.8,247.2L-399.8,247.2z M-417.7,311.5c0,0.7-0.1,1.2-0.4,1.5s-0.8,0.5-1.6,0.5h-9.5l2.6-15.7l6-6.5c0.9,0,1.6,0.2,2.1,0.6
		c0.5,0.4,0.8,1.1,0.8,2.1V311.5L-417.7,311.5z M-419.7,252.2c1.1,0,1.7,0.6,1.7,1.8v20.4c0,0.9-0.2,1.5-0.6,1.9
		c-0.4,0.4-1,0.6-1.7,0.6h-8.8l-3.2-27.3L-419.7,252.2z"/>
	<path class="st0" d="M-403.8,243.9c0-3.5-0.9-6.2-2.8-8.3s-4.7-3.1-8.4-3.1h-36.8v94.2h34.2c5.5,0,9.3-1.1,11.4-3.4
		c2.2-2.3,3.2-6,3.2-11.2v-24.4c0-2.1-0.6-3.9-1.8-5.6c-1.2-1.6-3.1-2.6-5.7-2.7c2.5-0.7,4.2-1.9,5.1-3.6s1.4-3.7,1.4-6v-25.9
		L-403.8,243.9L-403.8,243.9z M-421.5,308.2c0,0.7-0.1,1.2-0.4,1.5s-0.8,0.5-1.6,0.5h-9.5V288h8.7c0.9,0,1.6,0.2,2.1,0.6
		c0.5,0.4,0.8,1.1,0.8,2.1v17.6L-421.5,308.2L-421.5,308.2z M-423.5,249c1.1,0,1.7,0.6,1.7,1.8v20.4c0,0.9-0.2,1.5-0.6,1.9
		c-0.4,0.4-1,0.6-1.7,0.6h-8.8V249H-423.5L-423.5,249z"/>
</g>
</svg>
