<?xml version="1.0" encoding="utf-8"?>
<!-- Generator: Adobe Illustrator 19.1.0, SVG Export Plug-In . SVG Version: 6.00 Build 0)  -->
<svg version="1.1" id="Layer_1" xmlns="http://www.w3.org/2000/svg" xmlns:xlink="http://www.w3.org/1999/xlink" x="0px" y="0px"
	 viewBox="7 553 574.3 144.2" style="enable-background:new 7 553 574.3 144.2;" xml:space="preserve">
<style type="text/css">
	.st0{fill:#9C1C1F;}
</style>
<polygon points="393.1,553.1 402.9,566.4 399,654.8 380.8,656 375.9,653.8 "/>
<path d="M377.9,668c3.1-3.7,7-5.7,11.7-6.2c4.7-0.4,8.9,0.9,12.6,4s5.7,7,6.2,11.7c0.4,4.7-0.9,8.9-4,12.5s-7,5.6-11.8,6.1
	c-4.7,0.4-8.9-0.9-12.6-3.9s-5.7-6.9-6.2-11.6C373.4,675.9,374.8,671.7,377.9,668"/>
<g>
	<path d="M533,595l-3.5,91l3.5,3.2l20.7,1.9l-3.2-27H568c2.6,0,4.8-0.3,6.5-1s3.1-1.5,4.2-2.7c1-1.1,1.8-2.4,2.1-4
		c0.4-1.5,0.6-3.2,0.6-5v-44.9c0-3.5-0.9-6.2-2.8-8.3c-1.9-2.1-4.7-3.1-8.4-3.1L533,595L533,595z M561.2,611.5
		c1.1,0,1.7,0.6,1.7,1.8v33.3c0,0.7-0.1,1.2-0.3,1.5s-0.7,0.5-1.5,0.5l-8.7-8.4l-3.2-28.6L561.2,611.5L561.2,611.5z M510.6,689.3
		c5.5,0,9.3-1.1,11.4-3.4c2.2-2.3,3.2-6,3.2-11.2v-86.2L506,595v75.7c0,0.7-0.1,1.2-0.3,1.6c-0.2,0.3-0.7,0.5-1.5,0.5h-6.6
		c-0.8,0-5.7-28-5.7-28.7l7.8-49h-23.1v79.7c0,5.2,1.1,8.9,3.2,11.2c2.2,2.3,6,3.4,11.4,3.4L510.6,689.3L510.6,689.3z M402.7,600.1
		l8.1,12.5h12.6l-7.1,73.2l7.1,3.5h19.2v-76.7h12.6l-11.8-18.1l3-2.7L402.7,600.1z M365.5,602.8l-3.6-14.3l-15.6,6.5v40.3H336
		l5.2-35.1l-9.3-8.5l-15.2,3.2l-8.5,94.2H336v-37.5h10.3v37.7h21.2L365.5,602.8z M294.6,689.3c5.4,0,9.1-1.1,11.2-3.2
		c2.1-2.2,3.2-5.8,3.2-11v-31.2c0-3.6-0.8-6-2.4-7.5c-1.6-1.4-3.9-2.1-7-2.1h-11.8c-1,0-1.7-0.2-2.1-0.5c-0.5-0.3-0.7-1-0.7-1.9
		v-17.2c0-1.4,0.8-2.1,2.3-2.1h21.3l-3.2-17.5l-4.9-9.8l-21.1,9.8c-4.4,0-7.6,1.1-9.7,3.3c-2,2.2-3.1,5.2-3.1,8.9v32
		c0,2.3,0.3,4.2,0.8,5.6c0.6,1.4,1.3,2.5,2.3,3.2c1,0.8,2.1,1.3,3.4,1.5s2.6,0.3,4,0.3h9.8c1.3,0,2.2,0.1,2.7,0.4s0.8,1,0.8,2.3
		v17.2c0,1.3-0.7,1.9-2.2,1.9h-20.3l-6.4,17.5L294.6,689.3L294.6,689.3z M219.9,649.9l-7.5-54.9l-3.9-3.2l-9.8,3.2l-7.7,54.9
		l-6-54.9l-6.5,2.6l-13.1-10.4l11.2,98.8l4,3.2l21.1-3.2l3.8-45.9l7.8,49.1h17.2l14.8-94.2l-6.1-8.5L226,595L219.9,649.9z
		 M160.7,607.2c0-3.7-1-6.7-3.1-8.9c-2-2.2-5.3-3.3-9.7-3.3h-23.4c-4.4,0-7.6,1.1-9.7,3.3c-2,2.2-3.1,5.2-3.1,8.9v68.6
		c0,1.8,0.2,3.5,0.7,5.1c0.4,1.6,1.2,3,2.2,4.2s2.4,2.2,4.2,2.9c1.7,0.7,3.9,1.1,6.5,1.1h21.8c2.6,0,4.8-0.4,6.5-1.1
		s3.1-1.7,4.2-2.9c1-1.2,1.8-2.6,2.2-4.2c0.4-1.6,2.6-40.4,2.6-42.2L160.7,607.2z M139.9,611.5c1.1,0,1.7,0.6,1.7,1.8l-7.2,36
		c0,0.7,7,22.6,6.8,22.9s-0.7,0.5-1.5,0.5h-7.2c-0.8,0-1.3-0.2-1.5-0.5s-0.3-0.8-0.3-1.5v-57.3c0-1.2,0.6-1.8,1.7-1.8L139.9,611.5
		L139.9,611.5z M67.6,691.9l35.1-2.6l3.2-17.5l-4.2-6.5l-14.8,6.5V595l-3.9-3.2L67.5,595l-4,91L67.6,691.9z M58.9,606.5
		c0-3.5-0.9-6.2-2.8-8.3c-1.9-2.1-4.7-3.1-8.4-3.1H10.9l-3.4,91l3.4,3.3h34.2c5.5,0,9.3-1.1,11.4-3.4c2.2-2.3,3.2-6,3.2-11.2v-24.5
		c0-2.1-0.6-3.9-1.8-5.6c-1.2-1.6-3.1-2.6-5.7-2.7c2.5-0.7,4.2-1.9,5.1-3.6c0.9-1.7,1.4-3.7,1.4-6v-25.9H58.9L58.9,606.5z
		 M41.1,670.8c0,0.7-0.1,1.2-0.4,1.5s-0.8,0.5-1.6,0.5h-9.5l2.6-15.7l6-6.5c0.9,0,1.6,0.2,2.1,0.6c0.5,0.4,0.8,1.1,0.8,2.1
		L41.1,670.8L41.1,670.8z M39.1,611.5c1.1,0,1.7,0.6,1.7,1.8v20.4c0,0.9-0.2,1.5-0.6,1.9c-0.4,0.4-1,0.6-1.7,0.6h-8.8l-3.2-27.3
		L39.1,611.5z"/>
	<path class="st0" d="M529.2,591.8V686h18.7v-25.1H564c2.6,0,4.8-0.3,6.5-1s3.1-1.5,4.2-2.7c1-1.1,1.8-2.4,2.1-4
		c0.4-1.5,0.6-3.2,0.6-5v-45c0-3.5-0.9-6.2-2.8-8.3c-1.9-2.1-4.7-3.1-8.4-3.1L529.2,591.8L529.2,591.8z M557.4,608.3
		c1.1,0,1.7,0.6,1.7,1.8v33.3c0,0.7-0.1,1.2-0.3,1.5s-0.7,0.5-1.5,0.5h-9.4v-37L557.4,608.3L557.4,608.3L557.4,608.3z M506.7,686
		c5.5,0,9.3-1.1,11.4-3.4c2.2-2.3,3.2-6,3.2-11.2v-79.6h-19.2v75.7c0,0.7-0.1,1.2-0.3,1.6c-0.2,0.3-0.7,0.5-1.5,0.5h-6.6
		c-0.8,0-1.3-0.2-1.5-0.5s-0.3-0.9-0.3-1.6v-75.7h-19.2v79.7c0,5.2,1.1,8.9,3.2,11.2c2.2,2.3,6,3.4,11.4,3.4L506.7,686L506.7,686z
		 M411.8,591.8l-4.9,17.5h12.6V686h19.2v-76.7h12.6l-4.7-17.5H411.8z M361.6,591.8h-19.2v40.3h-10.3v-40.3h-19.2V686h19.2v-37.7
		h10.3V686h19.2V591.8z M290.7,686c5.4,0,9.1-1.1,11.2-3.2c2.1-2.2,3.2-5.8,3.2-11v-31.1c0-3.6-0.8-6-2.4-7.5
		c-1.6-1.4-3.9-2.1-7-2.1h-11.8c-1,0-1.7-0.2-2.1-0.5c-0.5-0.3-0.7-1-0.7-1.9v-17.3c0-1.4,0.8-2.1,2.3-2.1h21.3l-3.2-17.5h-26
		c-4.4,0-7.6,1.1-9.7,3.3c-2,2.2-3.1,5.2-3.1,8.9v32c0,2.3,0.3,4.2,0.8,5.6c0.6,1.4,1.3,2.5,2.3,3.2c1,0.8,2.1,1.3,3.4,1.5
		s2.6,0.3,4,0.3h9.8c1.3,0,2.2,0.1,2.7,0.4s0.8,1,0.8,2.3v17.2c0,1.3-0.7,1.9-2.2,1.9H264l3.4,17.5L290.7,686L290.7,686z M216,646.6
		l-7.5-54.9h-13.7l-7.7,54.9l-6-54.9H162l14.8,94.2H194l7.7-49.1l7.8,49.1h17.2l14.8-94.2h-19.2L216,646.6z M156.8,604
		c0-3.7-1-6.7-3.1-8.9c-2-2.2-5.3-3.3-9.7-3.3h-23.4c-4.4,0-7.6,1.1-9.7,3.3c-2,2.2-3.1,5.2-3.1,8.9v68.6c0,1.8,0.2,3.5,0.7,5.1
		c0.4,1.6,1.2,3,2.2,4.2s2.4,2.2,4.2,2.9c1.7,0.7,3.9,1.1,6.5,1.1h21.8c2.6,0,4.8-0.4,6.5-1.1s3.1-1.7,4.2-2.9
		c1-1.2,1.8-2.6,2.2-4.2c0.4-1.6,0.6-3.3,0.6-5.1V604H156.8z M136,608.3c1.1,0,1.7,0.6,1.7,1.8v57.5c0,0.7-0.1,1.2-0.3,1.5
		s-0.7,0.5-1.5,0.5h-7.2c-0.8,0-1.3-0.2-1.5-0.5s-0.3-0.8-0.3-1.5v-57.5c0-1.2,0.6-1.8,1.7-1.8H136z M63.7,686h35.1l3.2-17.5H83
		v-76.7H63.7V686z M55,603.2c0-3.5-0.9-6.2-2.8-8.3c-1.9-2.1-4.7-3.1-8.4-3.1H7V686h34.2c5.5,0,9.3-1.1,11.4-3.4
		c2.2-2.3,3.2-6,3.2-11.2V647c0-2.1-0.6-3.9-1.8-5.6c-1.2-1.6-3.1-2.6-5.7-2.7c2.5-0.7,4.2-1.9,5.1-3.6c0.9-1.7,1.4-3.7,1.4-6v-25.9
		H55L55,603.2z M37.2,667.6c0,0.7-0.1,1.2-0.4,1.5c-0.3,0.3-0.8,0.5-1.6,0.5h-9.5v-22.3h8.6c0.9,0,1.6,0.2,2.1,0.6
		c0.5,0.4,0.8,1.1,0.8,2.1V667.6L37.2,667.6z M35.2,608.3c1.1,0,1.7,0.6,1.7,1.8v20.4c0,0.9-0.2,1.5-0.6,1.9c-0.4,0.4-1,0.6-1.7,0.6
		h-8.8v-24.7H35.2z"/>
	<path class="st0" d="M375.2,669c3.1-3.7,7-5.7,11.7-6.2c4.7-0.4,8.9,0.9,12.6,4s5.7,7,6.2,11.7c0.4,4.7-0.9,8.9-4,12.5
		s-7,5.6-11.8,6.1c-4.7,0.4-8.9-0.9-12.6-3.9s-5.7-6.9-6.2-11.6C370.7,676.9,372.1,672.7,375.2,669 M375.9,653.8l19.8-2.2l-2-98.5
		l-31.8,3.1L375.9,653.8z"/>
</g>
</svg>
