<?xml version="1.0" encoding="utf-8"?>
<!-- Generator: Adobe Illustrator 19.1.0, SVG Export Plug-In . SVG Version: 6.00 Build 0)  -->
<svg version="1.1" id="Layer_1" xmlns="http://www.w3.org/2000/svg" xmlns:xlink="http://www.w3.org/1999/xlink" x="0px" y="0px"
	 viewBox="-237 532 83.2 102.7" style="enable-background:new -237 532 83.2 102.7;" xml:space="preserve">
<style type="text/css">
	.st0{fill:#9C1C1F;}
</style>
<g>
	<path d="M-179.1,595.5l-7.5-54.9l-3.9-3.2l-9.8,3.2l-7.7,54.9l-6-54.9l-6.5,2.6l-13.1-10.4l11.1,98.7l4,3.2l21.1-3.2l3.8-45.9
		l7.8,49.1h17.2l14.8-94.2l-6.1-8.5l-13.2,8.5L-179.1,595.5z"/>
	<path class="st0" d="M-183,592.2l-7.5-54.9h-13.7l-7.7,54.9l-6-54.9H-237l14.8,94.2h17.2l7.7-49.1l7.8,49.1h17.2l14.8-94.2h-19.3
		L-183,592.2z"/>
</g>
</svg>
