<?xml version="1.0" encoding="utf-8"?>
<!-- Generator: Adobe Illustrator 19.1.0, SVG Export Plug-In . SVG Version: 6.00 Build 0)  -->
<svg version="1.1" id="Layer_1" xmlns="http://www.w3.org/2000/svg" xmlns:xlink="http://www.w3.org/1999/xlink" x="0px" y="0px"
	 viewBox="7 553 53.2 94.2" style="enable-background:new 7 553 53.2 94.2;" xml:space="preserve">
<style type="text/css">
	.st0{fill:#9C1C1F;}
</style>
<g>
	<path d="M62.5,567.7c0-3.5-0.9-6.2-2.8-8.3s-4.7-3.1-8.4-3.1H14.5l-3.4,91l3.4,3.3h34.2c5.5,0,9.3-1.1,11.4-3.4
		c2.2-2.3,3.2-6,3.2-11.2v-24.5c0-2.1-0.6-3.9-1.8-5.6c-1.2-1.6-3.1-2.6-5.7-2.7c2.5-0.7,4.2-1.9,5.1-3.6s1.4-3.7,1.4-6v-25.9H62.5
		L62.5,567.7z M44.7,632c0,0.7-0.1,1.2-0.4,1.5c-0.3,0.3-0.8,0.5-1.6,0.5h-9.5l2.6-15.7l6-6.5c0.9,0,1.6,0.2,2.1,0.6
		c0.5,0.4,0.8,1.1,0.8,2.1V632L44.7,632z M42.7,572.7c1.1,0,1.7,0.6,1.7,1.8v20.4c0,0.9-0.2,1.5-0.6,1.9c-0.4,0.4-1,0.6-1.7,0.6
		h-8.8l-3.2-27.3L42.7,572.7z"/>
	<path class="st0" d="M58.6,564.4c0-3.5-0.9-6.2-2.8-8.3s-4.7-3.1-8.4-3.1H10.6v94.2h34.2c5.5,0,9.3-1.1,11.4-3.4
		c2.2-2.3,3.2-6,3.2-11.2v-24.4c0-2.1-0.6-3.9-1.8-5.6c-1.2-1.6-3.1-2.6-5.7-2.7c2.5-0.7,4.2-1.9,5.1-3.6s1.4-3.7,1.4-6v-25.9
		L58.6,564.4L58.6,564.4z M40.8,628.8c0,0.7-0.1,1.2-0.4,1.5c-0.3,0.3-0.8,0.5-1.6,0.5h-9.5v-22.3H38c0.9,0,1.6,0.2,2.1,0.6
		c0.5,0.4,0.8,1.1,0.8,2.1V628.8L40.8,628.8z M38.8,569.5c1.1,0,1.7,0.6,1.7,1.8v20.4c0,0.9-0.2,1.5-0.6,1.9c-0.4,0.4-1,0.6-1.7,0.6
		h-8.8v-24.7L38.8,569.5L38.8,569.5z"/>
</g>
</svg>
