<?xml version="1.0" encoding="utf-8"?>
<!-- Generator: Adobe Illustrator 19.1.0, SVG Export Plug-In . SVG Version: 6.00 Build 0)  -->
<svg version="1.1" id="Layer_1" xmlns="http://www.w3.org/2000/svg" xmlns:xlink="http://www.w3.org/1999/xlink" x="0px" y="0px"
	 viewBox="-190 350 577.4 143.3" style="enable-background:new -190 350 577.4 143.3;" xml:space="preserve">
<style type="text/css">
	.st0{fill:#9C1C1F;}
</style>
<polygon points="197.6,349.3 207.4,362.6 203.5,451 185.3,452.2 180.4,450 "/>
<path d="M182.4,464.2c3.1-3.7,7-5.7,11.7-6.2c4.7-0.4,8.9,0.9,12.6,4s5.7,7,6.2,11.7c0.4,4.7-0.9,8.9-4,12.5s-7,5.6-11.8,6.1
	c-4.7,0.4-8.9-0.9-12.6-3.9s-5.7-6.9-6.2-11.6C177.9,472.1,179.3,467.9,182.4,464.2"/>
<g>
	<path d="M337.5,391.2l-3.5,91l3.5,3.2l20.7,1.9l-3.2-27h17.5c2.6,0,4.8-0.3,6.5-1s3.1-1.5,4.2-2.7c1-1.1,1.8-2.4,2.1-4
		c0.4-1.5,0.6-3.2,0.6-5v-44.9c0-3.5-0.9-6.2-2.8-8.3s-4.7-3.1-8.4-3.1L337.5,391.2L337.5,391.2z M365.7,407.7
		c1.1,0,1.7,0.6,1.7,1.8v33.3c0,0.7-0.1,1.2-0.3,1.5s-0.7,0.5-1.5,0.5l-8.7-8.4l-3.2-28.6L365.7,407.7L365.7,407.7z M315.1,485.5
		c5.5,0,9.3-1.1,11.4-3.4c2.2-2.3,3.2-6,3.2-11.2v-86.2l-19.2,6.5v75.7c0,0.7-0.1,1.2-0.3,1.6c-0.2,0.3-0.7,0.5-1.5,0.5h-6.6
		c-0.8,0-5.7-28-5.7-28.7l7.8-49h-23.1V471c0,5.2,1.1,8.9,3.2,11.2c2.2,2.3,6,3.4,11.4,3.4L315.1,485.5L315.1,485.5z M207.2,396.3
		l8.1,12.5h12.6l-7.1,73.2l7.1,3.5h19.2v-76.7h12.6l-11.8-18.1l3-2.7L207.2,396.3z M170,399l-3.6-14.3l-15.6,6.5v40.3h-10.3
		l5.2-35.1l-9.3-8.5l-15.2,3.2l-8.5,94.2h27.8v-37.5h10.3v37.7H172L170,399z M99.1,485.5c5.4,0,9.1-1.1,11.2-3.2
		c2.1-2.2,3.2-5.8,3.2-11v-31.2c0-3.6-0.8-6-2.4-7.5c-1.6-1.4-3.9-2.1-7-2.1H92.3c-1,0-1.7-0.2-2.1-0.5c-0.5-0.3-0.7-1-0.7-1.9
		v-17.2c0-1.4,0.8-2.1,2.3-2.1h21.3l-3.2-17.5l-4.9-9.8l-21.1,9.8c-4.4,0-7.6,1.1-9.7,3.3c-2,2.2-3.1,5.2-3.1,8.9v32
		c0,2.3,0.3,4.2,0.8,5.6c0.6,1.4,1.3,2.5,2.3,3.2c1,0.8,2.1,1.3,3.4,1.5s2.6,0.3,4,0.3h9.8c1.3,0,2.2,0.1,2.7,0.4s0.8,1,0.8,2.3V466
		c0,1.3-0.7,1.9-2.2,1.9H72.4L66,485.4L99.1,485.5L99.1,485.5z M24.4,446.1l-7.5-54.9L13,388l-9.8,3.2l-7.7,54.9l-6-54.9l-6.5,2.6
		l-13.1-10.4l11.2,98.8l4,3.2l21.1-3.2l3.8-45.9l7.8,49.1H35l14.8-94.2l-6.1-8.5l-13.2,8.5L24.4,446.1z M-34.8,403.4
		c0-3.7-1-6.7-3.1-8.9c-2-2.2-5.3-3.3-9.7-3.3H-71c-4.4,0-7.6,1.1-9.7,3.3c-2,2.2-3.1,5.2-3.1,8.9V472c0,1.8,0.2,3.5,0.7,5.1
		c0.4,1.6,1.2,3,2.2,4.2s2.4,2.2,4.2,2.9c1.7,0.7,3.9,1.1,6.5,1.1h21.8c2.6,0,4.8-0.4,6.5-1.1s3.1-1.7,4.2-2.9
		c1-1.2,1.8-2.6,2.2-4.2c0.4-1.6,2.6-40.4,2.6-42.2L-34.8,403.4z M-55.6,407.7c1.1,0,1.7,0.6,1.7,1.8l-7.2,36c0,0.7,7,22.6,6.8,22.9
		s-0.7,0.5-1.5,0.5H-63c-0.8,0-1.3-0.2-1.5-0.5s-0.3-0.8-0.3-1.5v-57.3c0-1.2,0.6-1.8,1.7-1.8L-55.6,407.7L-55.6,407.7z
		 M-127.9,488.1l35.1-2.6l3.2-17.5l-4.2-6.5l-14.8,6.5v-76.8l-3.9-3.2l-15.5,3.2l-4,91L-127.9,488.1z M-136.6,402.7
		c0-3.5-0.9-6.2-2.8-8.3c-1.9-2.1-4.7-3.1-8.4-3.1h-36.8l-3.4,91l3.4,3.3h34.2c5.5,0,9.3-1.1,11.4-3.4c2.2-2.3,3.2-6,3.2-11.2v-24.5
		c0-2.1-0.6-3.9-1.8-5.6c-1.2-1.6-3.1-2.6-5.7-2.7c2.5-0.7,4.2-1.9,5.1-3.6c0.9-1.7,1.4-3.7,1.4-6v-25.9H-136.6L-136.6,402.7z
		 M-154.4,467c0,0.7-0.1,1.2-0.4,1.5s-0.8,0.5-1.6,0.5h-9.5l2.6-15.7l6-6.5c0.9,0,1.6,0.2,2.1,0.6c0.5,0.4,0.8,1.1,0.8,2.1
		L-154.4,467L-154.4,467z M-156.4,407.7c1.1,0,1.7,0.6,1.7,1.8v20.4c0,0.9-0.2,1.5-0.6,1.9c-0.4,0.4-1,0.6-1.7,0.6h-8.8l-3.2-27.3
		L-156.4,407.7z"/>
	<path class="st0" d="M333.7,388v94.2h18.7v-25.1h16.1c2.6,0,4.8-0.3,6.5-1s3.1-1.5,4.2-2.7c1-1.1,1.8-2.4,2.1-4
		c0.4-1.5,0.6-3.2,0.6-5v-45c0-3.5-0.9-6.2-2.8-8.3s-4.7-3.1-8.4-3.1L333.7,388L333.7,388z M361.9,404.5c1.1,0,1.7,0.6,1.7,1.8v33.3
		c0,0.7-0.1,1.2-0.3,1.5s-0.7,0.5-1.5,0.5h-9.4v-37L361.9,404.5L361.9,404.5L361.9,404.5z M311.2,482.2c5.5,0,9.3-1.1,11.4-3.4
		c2.2-2.3,3.2-6,3.2-11.2V388h-19.2v75.7c0,0.7-0.1,1.2-0.3,1.6c-0.2,0.3-0.7,0.5-1.5,0.5h-6.6c-0.8,0-1.3-0.2-1.5-0.5
		s-0.3-0.9-0.3-1.6V388h-19.2v79.7c0,5.2,1.1,8.9,3.2,11.2c2.2,2.3,6,3.4,11.4,3.4L311.2,482.2L311.2,482.2z M216.3,388l-4.9,17.5
		H224v76.7h19.2v-76.7h12.6l-4.7-17.5H216.3z M166.1,388h-19.2v40.3h-10.3V388h-19.2v94.2h19.2v-37.7h10.3v37.7h19.2V388z
		 M95.2,482.2c5.4,0,9.1-1.1,11.2-3.2c2.1-2.2,3.2-5.8,3.2-11v-31.1c0-3.6-0.8-6-2.4-7.5c-1.6-1.4-3.9-2.1-7-2.1H88.4
		c-1,0-1.7-0.2-2.1-0.5c-0.5-0.3-0.7-1-0.7-1.9v-17.3c0-1.4,0.8-2.1,2.3-2.1h21.3L106,388H80c-4.4,0-7.6,1.1-9.7,3.3
		c-2,2.2-3.1,5.2-3.1,8.9v32c0,2.3,0.3,4.2,0.8,5.6c0.6,1.4,1.3,2.5,2.3,3.2c1,0.8,2.1,1.3,3.4,1.5s2.6,0.3,4,0.3h9.8
		c1.3,0,2.2,0.1,2.7,0.4s0.8,1,0.8,2.3v17.2c0,1.3-0.7,1.9-2.2,1.9H68.5l3.4,17.5L95.2,482.2L95.2,482.2z M20.5,442.8L13,387.9H-0.7
		l-7.7,54.9l-6-54.9h-19.1l14.8,94.2h17.2L6.2,433l7.8,49.1h17.2L46,387.9H26.8L20.5,442.8z M-38.7,400.2c0-3.7-1-6.7-3.1-8.9
		c-2-2.2-5.3-3.3-9.7-3.3h-23.4c-4.4,0-7.6,1.1-9.7,3.3c-2,2.2-3.1,5.2-3.1,8.9v68.6c0,1.8,0.2,3.5,0.7,5.1c0.4,1.6,1.2,3,2.2,4.2
		s2.4,2.2,4.2,2.9c1.7,0.7,3.9,1.1,6.5,1.1h21.8c2.6,0,4.8-0.4,6.5-1.1s3.1-1.7,4.2-2.9c1-1.2,1.8-2.6,2.2-4.2
		c0.4-1.6,0.6-3.3,0.6-5.1v-68.6H-38.7z M-59.5,404.5c1.1,0,1.7,0.6,1.7,1.8v57.5c0,0.7-0.1,1.2-0.3,1.5s-0.7,0.5-1.5,0.5h-7.2
		c-0.8,0-1.3-0.2-1.5-0.5s-0.3-0.8-0.3-1.5v-57.5c0-1.2,0.6-1.8,1.7-1.8H-59.5z M-131.8,482.2h35.1l3.2-17.5h-19V388h-19.3V482.2z
		 M-140.5,399.4c0-3.5-0.9-6.2-2.8-8.3c-1.9-2.1-4.7-3.1-8.4-3.1h-36.8v94.2h34.2c5.5,0,9.3-1.1,11.4-3.4c2.2-2.3,3.2-6,3.2-11.2
		v-24.4c0-2.1-0.6-3.9-1.8-5.6c-1.2-1.6-3.1-2.6-5.7-2.7c2.5-0.7,4.2-1.9,5.1-3.6c0.9-1.7,1.4-3.7,1.4-6v-25.9H-140.5L-140.5,399.4z
		 M-158.3,463.8c0,0.7-0.1,1.2-0.4,1.5s-0.8,0.5-1.6,0.5h-9.5v-22.3h8.6c0.9,0,1.6,0.2,2.1,0.6c0.5,0.4,0.8,1.1,0.8,2.1
		L-158.3,463.8L-158.3,463.8z M-160.3,404.5c1.1,0,1.7,0.6,1.7,1.8v20.4c0,0.9-0.2,1.5-0.6,1.9c-0.4,0.4-1,0.6-1.7,0.6h-8.8v-24.7
		H-160.3z"/>
	<path class="st0" d="M179.7,465.2c3.1-3.7,7-5.7,11.7-6.2c4.7-0.4,8.9,0.9,12.6,4s5.7,7,6.2,11.7c0.4,4.7-0.9,8.9-4,12.5
		s-7,5.6-11.8,6.1c-4.7,0.4-8.9-0.9-12.6-3.9s-5.7-6.9-6.2-11.6C175.2,473.1,176.6,468.9,179.7,465.2 M180.4,450l19.8-2.2l-2-98.5
		l-31.8,3.1L180.4,450z"/>
</g>
</svg>
