<?xml version="1.0" encoding="utf-8"?>
<!-- Generator: Adobe Illustrator 19.1.0, SVG Export Plug-In . SVG Version: 6.00 Build 0)  -->
<svg version="1.1" id="Layer_1" xmlns="http://www.w3.org/2000/svg" xmlns:xlink="http://www.w3.org/1999/xlink" x="0px" y="0px"
	 viewBox="-452 232.7 54.8 97.3" style="enable-background:new -452 232.7 54.8 97.3;" xml:space="preserve">
<style type="text/css">
	.st0{fill:#9C1C1F;}
</style>
<g>
	<path d="M-399.1,248.1c0-3.7-1-6.7-3.1-8.9c-2-2.2-5.3-3.3-9.7-3.3h-23.4c-4.4,0-7.6,1.1-9.7,3.3c-2,2.2-3.1,5.2-3.1,8.9v68.6
		c0,1.8,0.2,3.5,0.7,5.1c0.4,1.6,1.2,3,2.2,4.2s2.4,2.2,4.2,2.9c1.7,0.7,3.9,1.1,6.5,1.1h21.8c2.6,0,4.8-0.4,6.5-1.1
		c1.7-0.7,3.1-1.7,4.2-2.9c1-1.2,1.8-2.6,2.2-4.2c0.4-1.6,2.6-40.4,2.6-42.2L-399.1,248.1z M-419.9,252.4c1.1,0,1.7,0.6,1.7,1.8
		l-7.2,36c0,0.7,7,22.6,6.8,22.9c-0.2,0.3-0.7,0.5-1.5,0.5h-7.2c-0.8,0-1.3-0.2-1.5-0.5c-0.2-0.3-0.3-0.8-0.3-1.5v-57.3
		c0-1.2,0.6-1.8,1.7-1.8L-419.9,252.4L-419.9,252.4z"/>
	<path class="st0" d="M-403,244.9c0-3.7-1-6.7-3.1-8.9c-2-2.2-5.3-3.3-9.7-3.3h-23.4c-4.4,0-7.6,1.1-9.7,3.3c-2,2.2-3.1,5.2-3.1,8.9
		v68.5c0,1.8,0.2,3.5,0.7,5.1c0.4,1.6,1.2,3,2.2,4.2s2.4,2.2,4.2,2.9c1.7,0.7,3.9,1.1,6.5,1.1h21.8c2.6,0,4.8-0.4,6.5-1.1
		c1.7-0.7,3.1-1.7,4.2-2.9c1-1.2,1.8-2.6,2.2-4.2c0.4-1.6,0.6-3.3,0.6-5.1v-68.6L-403,244.9L-403,244.9z M-423.8,249.2
		c1.1,0,1.7,0.6,1.7,1.8v57.4c0,0.7-0.1,1.2-0.3,1.5s-0.7,0.5-1.5,0.5h-7.2c-0.8,0-1.3-0.2-1.5-0.5c-0.2-0.3-0.3-0.8-0.3-1.5v-57.5
		c0-1.2,0.6-1.8,1.7-1.8L-423.8,249.2L-423.8,249.2z"/>
</g>
</svg>
