<?xml version="1.0" encoding="utf-8"?>
<!-- Generator: Adobe Illustrator 19.1.0, SVG Export Plug-In . SVG Version: 6.00 Build 0)  -->
<svg version="1.1" id="Layer_1" xmlns="http://www.w3.org/2000/svg" xmlns:xlink="http://www.w3.org/1999/xlink" x="0px" y="0px"
	 viewBox="-453 230.1 52.5 100.9" style="enable-background:new -453 230.1 52.5 100.9;" xml:space="preserve">
<style type="text/css">
	.st0{fill:#9C1C1F;}
</style>
<g>
	<path d="M-415.1,330.9c5.5,0,9.3-1.1,11.4-3.4c2.2-2.3,3.2-6,3.2-11.2v-86.2l-19.2,6.5v75.7c0,0.7-0.1,1.2-0.3,1.6
		c-0.2,0.3-0.7,0.5-1.5,0.5h-6.6c-0.8,0-5.7-28-5.7-28.7l7.8-49h-23.1v79.7c0,5.2,1.1,8.9,3.2,11.2c2.2,2.3,6,3.4,11.4,3.4
		L-415.1,330.9L-415.1,330.9z"/>
	<path class="st0" d="M-419,327.6c5.5,0,9.3-1.1,11.4-3.4c2.2-2.3,3.2-6,3.2-11.2v-79.6h-19.2v75.7c0,0.7-0.1,1.2-0.3,1.6
		c-0.2,0.3-0.7,0.5-1.5,0.5h-6.6c-0.8,0-1.3-0.2-1.5-0.5s-0.3-0.9-0.3-1.6v-75.7H-453v79.7c0,5.2,1.1,8.9,3.2,11.2
		c2.2,2.3,6,3.4,11.4,3.4L-419,327.6L-419,327.6z"/>
</g>
</svg>
