<?xml version="1.0" encoding="utf-8"?>
<!-- Generator: Adobe Illustrator 19.1.0, SVG Export Plug-In . SVG Version: 6.00 Build 0)  -->
<svg version="1.1" id="Layer_1" xmlns="http://www.w3.org/2000/svg" xmlns:xlink="http://www.w3.org/1999/xlink" x="0px" y="0px"
	 viewBox="7 553 48.8 100.8" style="enable-background:new 7 553 48.8 100.8;" xml:space="preserve">
<style type="text/css">
	.st0{fill:#9C1C1F;}
</style>
<g>
	<path d="M44.6,657c5.4,0,9.1-1.1,11.2-3.2c2.1-2.2,3.2-5.8,3.2-11v-31.2c0-3.6-0.8-6-2.4-7.5c-1.6-1.4-3.9-2.1-7-2.1H37.8
		c-1,0-1.7-0.2-2.1-0.5c-0.5-0.3-0.7-1-0.7-1.9v-17.2c0-1.4,0.8-2.1,2.3-2.1h21.3l-3.2-17.5l-4.9-9.8l-21.1,9.8
		c-4.4,0-7.6,1.1-9.7,3.3c-2,2.2-3.1,5.2-3.1,8.9v32c0,2.3,0.3,4.2,0.8,5.6c0.6,1.4,1.3,2.5,2.3,3.2c1,0.8,2.1,1.3,3.4,1.5
		s2.6,0.3,4,0.3h9.8c1.3,0,2.2,0.1,2.7,0.4s0.8,1,0.8,2.3v17.2c0,1.3-0.7,1.9-2.2,1.9H17.9l-6.4,17.5L44.6,657L44.6,657z"/>
	<path class="st0" d="M40.7,653.7c5.4,0,9.1-1.1,11.2-3.2c2.1-2.2,3.2-5.8,3.2-11v-31.1c0-3.6-0.8-6-2.4-7.5c-1.6-1.4-3.9-2.1-7-2.1
		H33.9c-1,0-1.7-0.2-2.1-0.5c-0.5-0.3-0.7-1-0.7-1.9v-17.3c0-1.4,0.8-2.1,2.3-2.1h21.3l-3.2-17.5h-26c-4.4,0-7.6,1.1-9.7,3.3
		c-2,2.2-3.1,5.2-3.1,8.9v32c0,2.3,0.3,4.2,0.8,5.6c0.6,1.4,1.3,2.5,2.3,3.2c1,0.8,2.1,1.3,3.4,1.5s2.6,0.3,4,0.3h9.8
		c1.3,0,2.2,0.1,2.7,0.4s0.8,1,0.8,2.3v17.2c0,1.3-0.7,1.9-2.2,1.9H14l3.4,17.5L40.7,653.7L40.7,653.7z"/>
</g>
</svg>
