<?xml version="1.0" encoding="utf-8"?>
<!-- Generator: Adobe Illustrator 19.1.0, SVG Export Plug-In . SVG Version: 6.00 Build 0)  -->
<svg version="1.1" id="Layer_1" xmlns="http://www.w3.org/2000/svg" xmlns:xlink="http://www.w3.org/1999/xlink" x="0px" y="0px"
	 viewBox="-455 230.2 48.8 104" style="enable-background:new -455 230.2 48.8 104;" xml:space="preserve">
<style type="text/css">
	.st0{fill:#9C1C1F;}
</style>
<g>
	<path d="M-421.2,334.2c5.4,0,9.1-1.1,11.2-3.2c2.1-2.2,3.2-5.8,3.2-11v-31.2c0-3.6-0.8-6-2.4-7.5c-1.6-1.4-3.9-2.1-7-2.1H-428
		c-1,0-1.7-0.2-2.1-0.5c-0.5-0.3-0.7-1-0.7-1.9v-17.2c0-1.4,0.8-2.1,2.3-2.1h21.3l-3.2-17.5l-4.9-9.8l-21.1,9.8
		c-4.4,0-7.6,1.1-9.7,3.3c-2,2.2-3.1,5.2-3.1,8.9v32c0,2.3,0.3,4.2,0.8,5.6c0.6,1.4,1.3,2.5,2.3,3.2c1,0.8,2.1,1.3,3.4,1.5
		c1.3,0.2,2.6,0.3,4,0.3h9.8c1.3,0,2.2,0.1,2.7,0.4s0.8,1,0.8,2.3v17.2c0,1.3-0.7,1.9-2.2,1.9H-448l-6.4,17.5L-421.2,334.2
		L-421.2,334.2z"/>
	<path class="st0" d="M-425.1,330.9c5.4,0,9.1-1.1,11.2-3.2c2.1-2.2,3.2-5.8,3.2-11v-31.1c0-3.6-0.8-6-2.4-7.5
		c-1.6-1.4-3.9-2.1-7-2.1H-432c-1,0-1.7-0.2-2.1-0.5c-0.5-0.3-0.7-1-0.7-1.9v-17.3c0-1.4,0.8-2.1,2.3-2.1h21.3l-3.2-17.5h-26
		c-4.4,0-7.6,1.1-9.7,3.3c-2,2.2-3.1,5.2-3.1,8.9v32c0,2.3,0.3,4.2,0.8,5.6c0.6,1.4,1.3,2.5,2.3,3.2c1,0.8,2.1,1.3,3.4,1.5
		c1.3,0.2,2.6,0.3,4,0.3h9.8c1.3,0,2.2,0.1,2.7,0.4s0.8,1,0.8,2.3v17.2c0,1.3-0.7,1.9-2.2,1.9h-20.3l3.4,17.5L-425.1,330.9
		L-425.1,330.9z"/>
</g>
</svg>
