<?xml version="1.0" encoding="utf-8"?>
<!-- Generator: Adobe Illustrator 19.1.0, SVG Export Plug-In . SVG Version: 6.00 Build 0)  -->
<svg version="1.1" id="Layer_1" xmlns="http://www.w3.org/2000/svg" xmlns:xlink="http://www.w3.org/1999/xlink" x="0px" y="0px"
	 viewBox="7 553 46.6 144.1" style="enable-background:new 7 553 46.6 144.1;" xml:space="preserve">
<style type="text/css">
	.st0{fill:#9C1C1F;}
</style>
<polygon points="38.2,553 48,566.3 44.1,654.7 25.9,655.9 21,653.7 "/>
<path d="M23,667.9c3.1-3.7,7-5.7,11.7-6.2c4.7-0.4,8.9,0.9,12.6,4c3.7,3.1,5.7,7,6.2,11.7c0.4,4.7-0.9,8.9-4,12.5s-7,5.6-11.8,6.1
	c-4.7,0.4-8.9-0.9-12.6-3.9s-5.7-6.9-6.2-11.6C18.5,675.8,19.9,671.6,23,667.9"/>
<g>
	<path class="st0" d="M20.3,668.9c3.1-3.7,7-5.7,11.7-6.2c4.7-0.4,8.9,0.9,12.6,4c3.7,3.1,5.7,7,6.2,11.7c0.4,4.7-0.9,8.9-4,12.5
		s-7,5.6-11.8,6.1c-4.7,0.4-8.9-0.9-12.6-3.9s-5.7-6.9-6.2-11.6C15.8,676.8,17.2,672.6,20.3,668.9 M21,653.7l19.8-2.2l-2-98.5
		L7,556.1L21,653.7z"/>
</g>
</svg>
