<?xml version="1.0" encoding="utf-8"?>
<!-- Generator: Adobe Illustrator 19.1.0, SVG Export Plug-In . SVG Version: 6.00 Build 0)  -->
<svg version="1.1" id="Layer_1" xmlns="http://www.w3.org/2000/svg" xmlns:xlink="http://www.w3.org/1999/xlink" x="0px" y="0px"
	 viewBox="0 0 93.9 30.6" style="enable-background:new 0 0 93.9 30.6;" xml:space="preserve">
<g>
	<path d="M2.1,28.3L4.6,17c0.4-1.9,0.8-3.9,1-6C5.9,9,6,7,6,5.3c0-0.4,0-0.8,0-1.1l2.1-1v0.5C8.1,4.6,8,6,7.9,7.9s-0.3,3.4-0.5,4.4
		c0.8-1.9,1.8-3.6,3-5.2c1.2-1.6,2.4-2.9,3.6-3.8C15.2,2.5,16.4,2,17.4,2s1.8,0.4,2.5,1.2c0.6,0.8,0.9,1.9,0.9,3.3
		c0,1.7-0.4,3.4-1.1,5.2c-0.7,1.7-1.8,3.3-3,4.8c-1.3,1.5-2.7,2.6-4.2,3.4c-1.5,0.8-3,1.3-4.5,1.3c-0.3,0-0.7,0-1.2-0.1l1-1.4
		c0.6,0.2,1.3,0.3,2,0.3c1.1,0,2.2-0.4,3.3-1.1c1.1-0.7,2.1-1.7,2.9-3.1c0.8-1.2,1.5-2.7,2-4.5c0.6-1.8,0.8-3.4,0.8-4.7
		c0-1.1-0.2-1.9-0.6-2.6c-0.4-0.6-0.9-0.9-1.6-0.9c-0.9,0-2,0.5-3.2,1.6c-1.2,1.1-2.4,2.5-3.6,4.4c-0.8,1.3-1.6,2.7-2.1,4.2
		c-0.6,1.5-1.1,3.3-1.5,5.3L4,28.3H2.1z"/>
</g>
<g>
	<path d="M19.4,20.6l-1.3,4.8c-0.2,0.8-0.3,1.4-0.3,1.9c0,0.3,0.1,0.6,0.2,0.8s0.2,0.3,0.4,0.3c0.3,0,0.8-0.4,1.5-1.1l0.2,0.2
		L20,27.7c-0.6,0.7-1,1.1-1.2,1.3s-0.5,0.3-0.7,0.3c-0.3,0-0.6-0.2-0.8-0.5s-0.3-0.7-0.3-1.1c0-0.3,0.1-0.8,0.2-1.4l0.9-5.1
		L19.4,20.6z M19.9,14.9c0.3,0,0.5,0.1,0.6,0.2s0.2,0.4,0.2,0.6c0,0.2-0.1,0.4-0.2,0.6s-0.4,0.2-0.6,0.2c-0.2,0-0.4-0.1-0.6-0.3
		S19,15.9,19,15.7c0-0.2,0.1-0.4,0.2-0.6S19.6,14.9,19.9,14.9z"/>
	<path d="M27.9,20.5l-1.4,5.4c-0.1,0.6-0.2,1-0.2,1.4c0,0.3,0.1,0.5,0.2,0.8s0.3,0.3,0.5,0.3c0.3,0,0.8-0.3,1.4-1l0.2,0.2l-0.2,0.2
		c-0.5,0.6-0.9,1-1.2,1.3s-0.5,0.4-0.7,0.4c-0.3,0-0.6-0.2-0.8-0.5s-0.3-0.7-0.3-1.1c0-0.3,0.1-1,0.4-2.1l0.1-0.6
		c-0.4,0.8-0.8,1.6-1.5,2.4c-1,1.3-2,1.9-2.9,1.9c-0.6,0-1-0.2-1.3-0.6s-0.5-0.9-0.5-1.6c0-0.9,0.3-1.9,0.8-2.9s1.2-1.8,1.9-2.5
		s1.5-1,2.3-1c0.8,0,1.3,0.3,1.7,0.8l0.2-0.6L27.9,20.5z M26.2,22.4c-0.1-0.4-0.3-0.7-0.6-0.9s-0.6-0.3-1-0.3
		c-0.4,0-0.9,0.2-1.4,0.6s-0.9,0.9-1.3,1.6c-0.3,0.6-0.6,1.2-0.8,1.8s-0.3,1.2-0.3,1.7c0,0.5,0.1,0.9,0.3,1.2s0.5,0.4,0.8,0.4
		c0.4,0,0.9-0.2,1.4-0.6s1-1,1.5-1.8c0.3-0.4,0.5-0.9,0.7-1.3s0.4-1.1,0.6-1.9L26.2,22.4z"/>
	<path d="M28.3,29.3l1.6-8.1l1.4-0.6L30,26c0.8-1.7,1.6-3,2.4-3.9s1.6-1.3,2.3-1.3c0.4,0,0.7,0.1,0.9,0.4s0.3,0.6,0.3,1
		c0,0.2-0.1,0.5-0.2,1l-0.1,0.6l-0.4,1.8L35.1,26c-0.1,0.6-0.2,1-0.2,1.3s0.1,0.6,0.2,0.8s0.2,0.3,0.4,0.3c0.3,0,0.8-0.4,1.4-1.1
		l0.2,0.2L37,27.7c-0.6,0.7-1,1.1-1.2,1.3s-0.5,0.3-0.7,0.3c-0.3,0-0.6-0.2-0.8-0.5c-0.2-0.3-0.3-0.7-0.3-1.1c0-0.3,0.1-0.8,0.2-1.4
		l0.6-3.1c0.1-0.5,0.1-0.8,0.1-1c0-0.2-0.1-0.4-0.2-0.5s-0.3-0.2-0.4-0.2c-0.7,0-1.5,0.7-2.5,2.2c-0.5,0.7-0.9,1.4-1.2,2.1
		s-0.7,1.6-1.1,2.8L29.3,29L28.3,29.3z"/>
	<path d="M36.7,26.4c0-0.9,0.2-1.8,0.7-2.6c0.5-0.9,1.1-1.6,1.8-2.1s1.5-0.8,2.3-0.8c0.8,0,1.5,0.3,2,0.8s0.8,1.2,0.8,2.1
		c0,0.9-0.2,1.8-0.7,2.7s-1.1,1.6-1.8,2.2c-0.8,0.6-1.5,0.8-2.3,0.8c-0.8,0-1.5-0.3-2-0.8S36.7,27.3,36.7,26.4z M43,23.1
		c0-0.6-0.1-1.1-0.4-1.5s-0.7-0.6-1.1-0.6c-0.4,0-0.8,0.1-1.2,0.4s-0.7,0.6-1,1.2c-0.4,0.6-0.6,1.3-0.9,2.1S38,26.2,38,26.8
		c0,0.7,0.1,1.3,0.4,1.7s0.7,0.6,1.2,0.6c0.8,0,1.6-0.6,2.2-1.8c0.3-0.6,0.6-1.3,0.8-2S43,23.8,43,23.1z"/>
</g>
<g>
	<path d="M67.6,26.4c0-0.9,0.2-1.8,0.7-2.6s1.1-1.6,1.8-2.1s1.5-0.8,2.3-0.8c0.8,0,1.5,0.3,2,0.8s0.8,1.2,0.8,2.1
		c0,0.9-0.2,1.8-0.7,2.7s-1.1,1.6-1.8,2.2s-1.5,0.8-2.3,0.8c-0.8,0-1.5-0.3-2-0.8S67.6,27.3,67.6,26.4z M73.9,23.1
		c0-0.6-0.1-1.1-0.4-1.5s-0.7-0.6-1.1-0.6c-0.4,0-0.8,0.1-1.2,0.4s-0.7,0.6-1,1.2c-0.4,0.6-0.6,1.3-0.9,2.1s-0.3,1.5-0.3,2.1
		c0,0.7,0.1,1.3,0.4,1.7S70,29,70.5,29c0.8,0,1.6-0.6,2.2-1.8c0.3-0.6,0.6-1.3,0.8-2S73.9,23.8,73.9,23.1z"/>
	<path d="M75.8,25c0.8-1,1.4-2,1.7-2.8c-0.8-0.4-1.2-1.1-1.2-1.9c0-0.4,0.1-0.7,0.3-1S77,19,77.3,19c0.3,0,0.5,0.1,0.7,0.4
		s0.3,0.6,0.3,1c0,0.3-0.1,0.6-0.2,1c0.3,0.1,0.5,0.1,0.7,0.1c0.6,0,1.1-0.2,1.5-0.5H81l-0.1,0.2c-0.7,1.3-1.3,2.6-1.7,3.8
		s-0.7,2.2-0.7,2.8c0,0.2,0.1,0.4,0.2,0.6s0.3,0.2,0.4,0.2c0.4,0,1-0.4,1.9-1.3l0.2,0.3c-0.3,0.3-0.7,0.7-1.3,1.1
		c-0.5,0.4-1,0.6-1.5,0.6c-0.4,0-0.7-0.1-0.9-0.4s-0.3-0.6-0.3-1c0-0.7,0.3-1.7,0.8-2.8c0.2-0.4,0.5-0.9,0.8-1.4s0.7-1.2,1.2-1.9
		l0.1-0.2c-0.3,0.3-0.6,0.5-0.9,0.6s-0.6,0.2-1,0.2c-0.2,0-0.4,0-0.6-0.1c-0.3,1-0.9,1.9-1.8,3L75.8,25z M77.8,21.3
		c0-0.2,0.1-0.4,0.1-0.6c0-0.3-0.1-0.6-0.2-0.8s-0.3-0.3-0.4-0.3c-0.1,0-0.2,0-0.3,0.1s-0.1,0.2-0.1,0.3
		C76.9,20.5,77.2,20.9,77.8,21.3z"/>
	<path d="M84.5,21.3l-1.1,4.9c-0.1,0.5-0.2,0.9-0.2,1.1c0,0.4,0.1,0.6,0.2,0.8s0.4,0.3,0.7,0.3c0.3,0,0.5-0.1,0.7-0.2
		c0.2-0.2,0.6-0.5,1-0.9l0.2-0.2l0.2,0.2c-0.6,0.7-1.1,1.2-1.4,1.5c-0.4,0.3-0.8,0.4-1.1,0.4c-0.5,0-0.8-0.2-1.1-0.5
		c-0.3-0.3-0.4-0.7-0.4-1.2c0-0.4,0.1-0.9,0.2-1.6l1-4.7h-1.4l0.1-0.5h1.4l0.8-4l1.4-0.6l-1,4.5h2.4l-0.1,0.5H84.5z"/>
	<path d="M92.4,26.9l0.3,0.2c-0.6,0.8-1.2,1.4-1.8,1.7s-1.2,0.5-1.9,0.5c-0.8,0-1.4-0.3-1.9-0.8c-0.5-0.5-0.7-1.2-0.7-2.1
		c0-0.9,0.2-1.8,0.7-2.7c0.5-0.9,1-1.7,1.7-2.2s1.4-0.9,2.1-0.9c0.4,0,0.7,0.1,1,0.4c0.3,0.2,0.4,0.5,0.4,0.9c0,0.8-0.4,1.5-1.2,2.3
		s-1.9,1.4-3.4,1.9c0,0.1,0,0.2,0,0.3c0,0.7,0.2,1.2,0.6,1.6s0.8,0.6,1.4,0.6c0.5,0,0.9-0.1,1.3-0.4S92,27.5,92.4,26.9z M87.8,25.8
		c1.1-0.5,1.9-1,2.4-1.6c0.4-0.4,0.7-0.8,0.9-1.3s0.4-0.9,0.4-1.2c0-0.5-0.2-0.7-0.6-0.7c-0.6,0-1.3,0.5-1.9,1.5
		C88.3,23.6,87.9,24.6,87.8,25.8z"/>
</g>
<g>
	<path d="M70.9,19.6h-4.9l0,0.1c-0.8,2-1.9,3.7-3.1,5.1s-2.7,2.5-4.3,3.2C57,28.7,55.2,29,53.3,29c-1.3,0-2.4-0.2-3.4-0.5l0.6-1.5
		c1.5,0.8,3,1.2,4.4,1.2c2.2,0,4.2-0.9,6-2.6c0.7-0.7,1.4-1.5,1.9-2.4c0.5-0.8,1-2,1.6-3.5l0-0.1h-2l0.1-0.7h2.1l0-0.1l0.1-0.3
		c0.4-1.2,0.8-2.4,1.2-3.6s0.8-2.8,1.3-4.8c0.5-1.9,0.8-3.4,1-4.6l2-0.9c-0.1,0-0.2,0-0.3,0c-0.1,0-0.1,0-0.2,0
		c-3.3-0.4-6.1-0.5-8.4-0.5c-1.5,0-2.7,0.1-3.7,0.3s-1.7,0.5-2.4,0.9c-0.9,0.6-1.4,1.3-1.4,2.2c0,1.8,2.3,2.9,6.9,3.1l-1.3,1.4
		c-1.9-0.1-3.4-0.6-4.5-1.3c-1.1-0.8-1.7-1.8-1.7-3c0-1.6,1-2.9,3-3.9c1.7-0.8,4.2-1.2,7.5-1.2c0.9,0,2,0.1,3.4,0.2
		c1.4,0.1,2.8,0.2,4.3,0.4c1.5,0.2,2.7,0.3,3.7,0.5L76,3.5l-0.9,1.8l-0.4-0.1c-1.2-0.2-2.5-0.4-4.1-0.6l-0.1,0l0,0.1
		C70.5,5,70.3,5.8,70,7s-0.6,2.2-0.8,3.1c-0.2,0.8-0.5,1.6-0.7,2.5c-0.2,0.9-0.5,1.7-0.8,2.6c-0.5,1.5-1,2.8-1.4,3.8h4.7L70.9,19.6z
		"/>
</g>
</svg>
