<?xml version="1.0" encoding="utf-8"?>
<!-- Generator: Adobe Illustrator 19.1.0, SVG Export Plug-In . SVG Version: 6.00 Build 0)  -->
<svg version="1.1" id="Layer_1" xmlns="http://www.w3.org/2000/svg" xmlns:xlink="http://www.w3.org/1999/xlink" x="0px" y="0px"
	 viewBox="0 0 792 612" style="enable-background:new 0 0 792 612;" xml:space="preserve">
<style type="text/css">
	.st0{fill-rule:evenodd;clip-rule:evenodd;fill:#F8F8F9;}
</style>
<path class="st0" d="M50.3,42.6c54.5,0,106.8,0,161.3,0c27.3,0,51.3-4.6,59.6,15.3c2.6,6.3,0.4,19.6-0.6,21S174,230.5,108.8,335.1
	c-1.8,2.9-0.1,7.9,0.6,9.7c5.2,13.8,16.3,11.4,34.6,11.4c60.1,0,106,0.1,110.2,1.1c21.4,5.3,30.7,34.5,3.3,49.6
	c0,0-71.6-0.1-186.2-0.2c-28,0-48.5,3.5-54.5-19.3c-3-11.1,4.1-20.3,6.2-23.9c2.1-3.5,153.2-242,155.8-246.6
	c2.7-4.9,1.4-12.1,0.3-14c-6.3-11.2-14.4-10.2-31.2-10.2c-58.4,0-102,0.1-102,0.1c-7,0-20.8-9.6-20.5-24.9
	C25.8,51.8,41.8,42.6,50.3,42.6z"/>
<path class="st0" d="M311.5,42.6c57.5,0,115.1,0,172.6,0c25.5,0,42.1-3.3,50,15.3c1.3,3,2.4,10,1.1,15.3
	c-2.6,10.9-10.8,17.2-17,18.7c-4.9,1.2-54.9,0.6-57.7,0.6c-9.7,0-16,10.1-18.3,19.8c0,71.4,0,143.9,0,215.2
	c0.4,24.9,0.1,44.8,0,54.5c-0.1,9.7-6.3,24.6-27.3,24.4c-25.6-0.2-28.6-14.2-28.8-23.5c-0.1-9.3-0.2-25.4-0.2-43.5
	c0-75.5,0-150.5,0-226c0-14.3-10.4-20-19.9-20.4c-9.5-0.4-49.2-0.6-52.8-0.6c-8.1-1.9-13-4.8-17-10.8c-2.5-3.8-5.8-10.4-4-18.2
	C295.9,48.4,310.1,42.7,311.5,42.6z"/>
<path class="st0" d="M576.7,42.6c46.9,0,91.6,0,138.6,0c8.9,0,13.8,0,22.7,0c15,2.6,26.2,14.9,22.1,31.2c-2.2,8.7-11.7,17-16.5,18.2
	c-4.7,1.2-84.3,1.1-111.3,1.1c-8.4,0.7-21,2.9-21,19.5c0,9.5-0.2,59.6,0,63.4s5.1,21,18.7,22.7c15.8,1.9,90.2-0.6,93.7,0.6
	c10,2.4,22.6,15.9,17.6,32.4c-2.2,7.3-8.4,13-14.8,16.5c-6,3.3-84.4-2.5-96,1.7c-11.6,4.2-16.3,9.4-18.2,17
	c-1.4,5.7-1.1,51.4-1,66.4c0.1,8.4,5.1,14.9,10.1,18.2c9.3,6.3,20.4,5.5,33.5,5.5c47.7,0,83.5-0.8,87.5,0.1
	c21.4,4.8,28.6,36.4,2.6,49.6c0,0-136-0.2-145.7-0.2c-13.6,0-26.9,0.5-34.6-5.1c-12.2-8.8-10.2-30.6-10.2-51.7
	c0-55.9,0.6-219,0.6-244.8c0-13.4-1.4-42.5,1.7-47.7c3-5.2,8.3-10.4,13.6-13.1C572.2,43.8,575,43.2,576.7,42.6z"/>
</svg>
