<svg id="Layer_1" data-name="Layer 1" xmlns="http://www.w3.org/2000/svg" viewBox="0 0 518.58 313.83"><defs><style>.cls-1{fill:#be0021;}.cls-2{fill:#fff;}</style></defs><title>lg_red_circle_logo</title><circle class="cls-1" cx="156.91" cy="156.91" r="156.91"/><path class="cls-2" d="M363.55,180.21c0,75.11-60.89,136.65-136,136.65a136,136,0,0,1-3-271.95V57.47A123.44,123.44,0,1,0,350.1,195.8H266V180.21h97.53Z" transform="translate(-70.64 -23.96)"/><circle class="cls-2" cx="99.22" cy="99.38" r="18.83"/><polygon class="cls-2" points="165.79 217.73 165.79 84.59 151 84.59 151 232.53 195.38 232.53 195.38 217.73 165.79 217.73"/><polygon points="324.45 215.82 324.45 108.06 359.77 108.06 359.77 190.68 408.27 190.68 408.27 215.82 324.45 215.82"/><path d="M589.22,240.08H566.47l-1.35-10.63c-5.84,6.88-15.57,13.17-32.48,13.17-27.54,0-52.24-17.81-52.24-55.38,0-34.43,21.55-58.07,56.43-58.07,25.89,0,46.7,13.47,51,40H554.35c-2.54-8.83-9-13.62-18.11-13.62-13.92,0-20.51,12.57-20.51,31.58,0,15.27,4.79,29.19,22.6,29.19,7.18,0,16.31-4.94,18.11-12.42H540.88V180.51h48.35v59.57Z" transform="translate(-70.64 -23.96)"/></svg>