<?xml version="1.0" encoding="utf-8"?>
<!-- Generator: Adobe Illustrator 19.2.1, SVG Export Plug-In . SVG Version: 6.00 Build 0)  -->
<svg version="1.1" id="Layer_1" xmlns="http://www.w3.org/2000/svg" xmlns:xlink="http://www.w3.org/1999/xlink" x="0px" y="0px"
	 viewBox="0 0 1169 368.7" style="enable-background:new 0 0 1169 368.7;" xml:space="preserve">
<style type="text/css">
	.st0{fill:#BE0021;}
	.st1{fill:#FFFFFF;}
	.st2{fill:#231F20;}
</style>
<circle class="st0" cx="227.6" cy="180.9" r="156.9"/>
<path class="st1" d="M363.5,180.2c0,75.1-60.9,136.7-136,136.7s-136-60.9-136-136c0-74.1,59.3-134.4,133-136v12.6
	C157.7,59.1,104,113.7,104,180.9c0,68.2,55.3,123.4,123.4,123.4c63.1,0,115.2-47.4,122.5-108.5H266v-15.6L363.5,180.2L363.5,180.2z"
	/>
<circle class="st1" cx="169.9" cy="123.3" r="18.8"/>
<polygon class="st1" points="236.4,241.7 236.4,108.5 221.6,108.5 221.6,256.5 266,256.5 266,241.7 "/>
<polygon points="395.1,239.8 395.1,132 430.4,132 430.4,214.6 478.9,214.6 478.9,239.8 "/>
<path d="M589.2,240.1h-22.8l-1.3-10.6c-5.8,6.9-15.6,13.2-32.5,13.2c-27.5,0-52.2-17.8-52.2-55.4c0-34.4,21.6-58.1,56.4-58.1
	c25.9,0,46.7,13.5,51,40h-33.5c-2.5-8.8-9-13.6-18.1-13.6c-13.9,0-20.5,12.6-20.5,31.6c0,15.3,4.8,29.2,22.6,29.2
	c7.2,0,16.3-4.9,18.1-12.4h-15.6v-23.3h48.3L589.2,240.1L589.2,240.1z"/>
<path class="st2" d="M1026.2,223.9l-4.1,0.8l3.2-33.6h61.2v-30.7h-92.9l-6.4,87.3l14.4,7.7c3.1-0.9,7.2-1.8,12.2-2.6
	c5-0.8,9.6-1.2,13.7-1.2c22.9,0,34.3,8.6,34.3,25.9c0,18.1-11.1,27.2-33.2,27.2c-7.3,0-15.1-1-23.3-3.1c-8.2-2.1-15.4-4.7-21.6-8
	v31.3c11.7,6.2,27.1,9.3,46.2,9.3c21.9,0,38.8-5.2,50.6-15.5c11.8-10.3,17.7-25,17.7-44.2c0-16.2-4.9-28.9-14.7-38.2
	c-9.8-9.3-23-13.9-39.5-13.9C1036.9,222.3,1031,222.8,1026.2,223.9L1026.2,223.9z"/>
<path class="st2" d="M970.9,26.8l-48.7,67.5H790.9c0,0-50.8,8.6-67.5,33.7c-16.6,25.1-18.5,47.6-18.7,63.7
	c-0.2,16.1,21.7,72.4,60,78.7c38.3,6.4,131.2,3.7,131.2,3.7v-60l-108.7-3.7l33.7-48.7h138.7V338H760.9c0,0-47.2-6.8-75-30
	c-19.8-16.5-46.3-61-52.5-86.2s-7.5-65.3,3.7-93.7s30.3-54.1,52.5-71.2c22.1-17.2,74.2-29.7,101.2-30
	C817.9,26.4,970.9,26.8,970.9,26.8z"/>
</svg>
