<?xml version="1.0" encoding="utf-8"?>
<!-- Generator: Adobe Illustrator 19.1.0, SVG Export Plug-In . SVG Version: 6.00 Build 0)  -->
<svg version="1.1" id="Layer_1" xmlns="http://www.w3.org/2000/svg" xmlns:xlink="http://www.w3.org/1999/xlink" x="0px" y="0px"
	 viewBox="-54 303 450 355" style="enable-background:new -54 303 450 355;" xml:space="preserve">
<style type="text/css">
	.st0{clip-path:url(#SVGID_2_);fill:#0E4E96;}
	.st1{clip-path:url(#SVGID_4_);fill:none;stroke:#2E3B42;stroke-width:18.182;}
	.st2{clip-path:url(#SVGID_6_);fill:#FFFFFF;}
	.st3{clip-path:url(#SVGID_8_);fill:#FFFFFF;}
	.st4{clip-path:url(#SVGID_10_);fill:#FFFFFF;}
	.st5{clip-path:url(#SVGID_12_);fill:#FFFFFF;}
</style>
<g>
	<g>
		<defs>
			<rect id="SVGID_1_" x="-54" y="303" width="450" height="355"/>
		</defs>
		<clipPath id="SVGID_2_">
			<use xlink:href="#SVGID_1_"  style="overflow:visible;"/>
		</clipPath>
		<path class="st0" d="M-13.7,312.1c0,0-31.2,0-31.2,31.2v274.5c0,0,0,31.2,31.2,31.2h369.5c0,0,31.2,0,31.2-31.2V343.3
			c0,0,0-31.2-31.2-31.2C355.8,312.1-13.7,312.1-13.7,312.1z"/>
	</g>
	<g>
		<defs>
			<rect id="SVGID_3_" x="-54" y="303" width="450" height="355"/>
		</defs>
		<clipPath id="SVGID_4_">
			<use xlink:href="#SVGID_3_"  style="overflow:visible;"/>
		</clipPath>
		<path class="st1" d="M-13.7,312.1c0,0-31.2,0-31.2,31.2v274.5c0,0,0,31.2,31.2,31.2h369.5c0,0,31.2,0,31.2-31.2V343.3
			c0,0,0-31.2-31.2-31.2C355.8,312.1-13.7,312.1-13.7,312.1z"/>
	</g>
	<g>
		<defs>
			<rect id="SVGID_5_" x="-54" y="303" width="450" height="355"/>
		</defs>
		<clipPath id="SVGID_6_">
			<use xlink:href="#SVGID_5_"  style="overflow:visible;"/>
		</clipPath>
		<path class="st2" d="M28.5,498c0.1,29.2,13.8,43.8,41.1,43.8h113.9l-15-38h-80c-12.6,0-19.1-5.8-19.1-19.3v-74.2
			c0.1-11.2,5.4-16.9,15.9-16.9h65.6l-15.1-37.2l-66.2,0.1c-27.3,0-40.9,13.4-40.9,40.2v0.3L28.5,498z"/>
	</g>
	<g>
		<defs>
			<rect id="SVGID_7_" x="-54" y="303" width="450" height="355"/>
		</defs>
		<clipPath id="SVGID_8_">
			<use xlink:href="#SVGID_7_"  style="overflow:visible;"/>
		</clipPath>
		<path class="st3" d="M304.2,356.3H231c-27.3,0-40.9,13.5-40.9,40.5v40.3c0,22.6,10.5,33.9,31.6,33.9H269c6.2-0.1,9.4,3.3,9.4,10.1
			v13.2c0,6.7-3.5,9.5-9.9,9.5h-93l15.7,38h90.3c27.3,0,40.9-14.6,40.9-43.8v-30.4c-0.1-24.7-10.6-37.1-31.6-37l-44.1-0.1
			c-8.4,0-12.6-4.5-12.6-13.5l0.1-6.7c0-9.1,4.2-13.6,12.5-13.5h72.4L304.2,356.3z"/>
	</g>
	<g>
		<defs>
			<rect id="SVGID_9_" x="-54" y="303" width="450" height="355"/>
		</defs>
		<clipPath id="SVGID_10_">
			<use xlink:href="#SVGID_9_"  style="overflow:visible;"/>
		</clipPath>
		<path class="st4" d="M163.4,486.7c-2.9,7.5-4.7,8.4-8.7,8.4c-4.7,0-10.4-0.9-12.6-3.2c-1.9-2.1-2.5-5.2-2.5-11.2
			c0-7.7,0.6-11.5,7.8-13.5c1.1,1.3,2.1,2.6,3.2,4L163.4,486.7z M141.5,459c-13,3-16.2,8.5-16.2,21.3c0,10.8,1.3,17.5,5,21.2
			c5,4.8,15.7,5.9,24.9,5.9c8.7,0,12.7-2.2,16.2-10.7l5.6,9.5h21.6v-13H187l-9.4-11.7l4.4-13.4h15l-8-12.7h-15.1l-4.7,15.6
			l-8.4-10.3c-9.8-12.5-11.3-15.1-11.3-20.1c0-5.3,1.8-7.3,9.2-7.3c3.1,0,7.5,0.3,8.7,0.8v11h14.4v-21.9c-3.2-0.7-12.5-2.3-22.4-2.3
			c-17,0-24.8,4.6-24.8,19.7C134.5,447.1,136.9,452.3,141.5,459"/>
	</g>
	<g>
		<defs>
			<rect id="SVGID_11_" x="-54" y="303" width="450" height="355"/>
		</defs>
		<clipPath id="SVGID_12_">
			<use xlink:href="#SVGID_11_"  style="overflow:visible;"/>
		</clipPath>
		<path class="st5" d="M301.3,593.9v-26.5h5.1c5.4,0,6.9,2.4,6.9,11.8v2.8c0,9.3-1.5,11.9-6.9,11.9L301.3,593.9L301.3,593.9z
			 M291.3,599.3c0.8,0,6.5-0.1,15-0.1c10.4,0,14.2-2.6,14.2-18.7c0-16.1-3.7-18.6-14.2-18.6h-15v5.9h3.1v25.6h-3.1V599.3z
			 M257.7,599.2h27.1V587h-6.5v6.8h-10.5v-11h8v-5.5h-8v-9.8h10.5v5.7h6.5v-11.3h-27.1v5.9h3.1v25.6h-3.1V599.2z M229.9,599.2h14.4
			v-5.8h-3.7v-26.3h5.6v6h6.1v-11.3H222v11.3h6.1v-6h5.6v26.3H230v5.8H229.9z M201.9,599.2h14.4v-5.8h-3.7v-25.6h3.8v-5.9h-14.5v5.9
			h3.7v25.6h-3.7L201.9,599.2L201.9,599.2z M158.2,599.2h12.2v-5.8h-3.6V578c0-2.1,0-8,0-9.4c0.3,1.4,2,7.1,2.7,9.4l4.1,13.5h6.1
			l4.1-13.5c0.6-2.1,2.5-8,2.8-9.4c0,1.4-0.1,7.3-0.1,9.4v15.4h-3.6v5.8h13.5v-5.8h-3.1v-25.6h3.1v-5.9h-12.7l-6.2,20.5l-6.3-20.5
			h-12.9v5.9h3.1v25.6h-3.1v5.8H158.2z M138,599.2h14.4v-5.8h-3.7v-25.6h3.8v-5.9H138v5.9h3.7v25.6H138V599.2z M105.4,599.2h27.1
			V587h-6.6v6.7h-10.5v-25.8h4.5V562h-14.5v5.9h3.1v25.6h-3.1V599.2z M67.9,599.2h12.4v-5.8h-3.7V579c0-2.1,0-7.9-0.1-9
			c0.2,0.9,2.7,5.9,4.2,8.9l9.7,20.2h6.4v-31.4h2.9v-5.9H87.6v5.9h3.6v10.4c0,2,0,7.7,0.1,8.8c-0.2-0.6-2.8-5.9-4.1-8.6l-8-16.5
			H67.8v5.9h3.1v25.6h-3.1v5.9H67.9z M46.1,599.7c9.9,0,13.2-2.8,13.2-13.8v-18.1h2.9v-5.9H49v5.9h3.7v18.3c0,6.3-1.4,7.5-6.4,7.5
			s-6.5-1.5-6.5-7.6v-18.2h4.1v-5.9h-14v5.9h2.8V586C32.7,597.3,36.2,599.7,46.1,599.7"/>
	</g>
</g>
</svg>
