<?xml version="1.0" encoding="utf-8"?>
<!-- Generator: Adobe Illustrator 19.1.0, SVG Export Plug-In . SVG Version: 6.00 Build 0)  -->
<svg version="1.1" id="Layer_1" xmlns="http://www.w3.org/2000/svg" xmlns:xlink="http://www.w3.org/1999/xlink" x="0px" y="0px"
	 viewBox="0 0 1024 768" style="enable-background:new 0 0 1024 768;" xml:space="preserve">
<style type="text/css">
	.st0{fill:#9C1C1F;}
</style>
<g>
	<path d="M757.7,138.2l-3.5,91l3.5,3.2l20.7,1.9l-3.2-27h17.4c2.6,0,4.8-0.3,6.5-1c1.7-0.6,3.1-1.5,4.2-2.7c1-1.1,1.8-2.4,2.1-4
		c0.4-1.5,0.6-3.2,0.6-5v-45.1c0-3.5-0.9-6.2-2.8-8.3c-1.9-2.1-4.7-3.1-8.4-3.1H757.7z M786,154.7c1.1,0,1.7,0.6,1.7,1.8v33.3
		c0,0.7-0.1,1.2-0.3,1.5c-0.2,0.3-0.7,0.5-1.5,0.5l-8.7-8.4l-3.2-28.6H786z M735.3,232.5c5.5,0,9.3-1.1,11.4-3.4
		c2.2-2.3,3.2-6,3.2-11.2v-86.2l-19.2,6.5v75.7c0,0.7-0.1,1.2-0.3,1.6c-0.2,0.3-0.7,0.5-1.5,0.5h-6.6c-0.8,0-5.7-28-5.7-28.7l7.8-49
		h-23.1v79.7c0,5.2,1.1,8.9,3.2,11.2c2.2,2.3,6,3.4,11.4,3.4H735.3z M627.3,143.3l8.1,12.5H648l-7.1,73.2l7.1,3.5h19.2v-76.7h12.6
		L668,137.7l3-2.7L627.3,143.3z M590.2,146l-3.6-14.3l-15.6,6.5v40.3h-10.3l5.2-35.1l-9.3-8.4l-15.2,3.2l-8.5,94.2h27.7v-37.7h10.3
		v37.7h21.2L590.2,146z M519.2,232.5c5.4,0,9.1-1.1,11.2-3.2c2.1-2.2,3.2-5.8,3.2-11v-31.1c0-3.6-0.8-6-2.4-7.5
		c-1.6-1.4-3.9-2.1-7-2.1h-11.8c-1,0-1.7-0.2-2.1-0.5c-0.5-0.3-0.7-1-0.7-1.9v-17.2c0-1.4,0.8-2.1,2.3-2.1h21.3l-3.2-17.6l-4.9-9.8
		l-21.1,9.8c-4.4,0-7.6,1.1-9.7,3.3c-2,2.2-3.1,5.2-3.1,8.9v32c0,2.3,0.3,4.2,0.8,5.6c0.6,1.4,1.3,2.5,2.3,3.2
		c1,0.8,2.1,1.3,3.4,1.5c1.3,0.2,2.6,0.3,4,0.3h9.8c1.3,0,2.2,0.1,2.7,0.4c0.5,0.3,0.8,1,0.8,2.3V213c0,1.3-0.7,1.9-2.2,1.9h-20.3
		l-6.4,17.5H519.2z M444.6,193.1l-7.5-54.9l-3.9-3.2l-9.8,3.2l-7.7,54.9l-6-54.9l-6.5,2.6l-13.1-10.4l11.2,98.8l4,3.2l21.1-3.2
		l3.8-45.9l7.8,49.1h17.2l14.8-94.2l-6.1-8.4l-13.2,8.4L444.6,193.1z M385.3,150.5c0-3.7-1-6.7-3.1-8.9c-2-2.2-5.3-3.3-9.7-3.3
		h-23.4c-4.4,0-7.6,1.1-9.7,3.3c-2,2.2-3.1,5.2-3.1,8.9v68.6c0,1.8,0.2,3.5,0.6,5.1c0.4,1.6,1.2,3,2.2,4.2c1,1.2,2.4,2.2,4.2,2.9
		c1.7,0.7,3.9,1.1,6.5,1.1h21.8c2.6,0,4.8-0.4,6.5-1.1c1.7-0.7,3.1-1.7,4.2-2.9c1-1.2,1.8-2.6,2.2-4.2c0.4-1.6,2.6-40.4,2.6-42.2
		L385.3,150.5z M364.5,154.7c1.1,0,1.7,0.6,1.7,1.8l-7.1,36c0,0.7,7,22.6,6.8,22.9c-0.2,0.3-0.7,0.5-1.5,0.5h-7.1
		c-0.8,0-1.3-0.2-1.5-0.5c-0.2-0.3-0.3-0.8-0.3-1.5v-57.5c0-1.2,0.6-1.8,1.7-1.8H364.5z M292.2,235.1l35.1-2.6l3.2-17.5l-4.2-6.5
		l-14.8,6.5v-76.7l-3.9-3.2l-15.5,3.2l-4,91L292.2,235.1z M283.5,149.7c0-3.5-0.9-6.2-2.8-8.3c-1.9-2.1-4.7-3.1-8.4-3.1h-36.8
		l-3.4,91l3.4,3.3h34.2c5.5,0,9.3-1.1,11.4-3.4c2.2-2.3,3.2-6,3.2-11.2v-24.4c0-2.1-0.6-3.9-1.8-5.6c-1.2-1.6-3.1-2.6-5.7-2.7
		c2.5-0.7,4.2-1.9,5.1-3.6c0.9-1.7,1.4-3.7,1.4-6V149.7z M265.7,214c0,0.7-0.1,1.2-0.4,1.5c-0.3,0.3-0.8,0.5-1.6,0.5h-9.5l2.6-15.7
		l6-6.5c0.9,0,1.6,0.2,2.1,0.6c0.5,0.4,0.8,1.1,0.8,2.1V214z M263.7,154.7c1.1,0,1.7,0.6,1.7,1.8V177c0,0.9-0.2,1.5-0.7,1.9
		c-0.4,0.4-1,0.6-1.7,0.6h-8.8l-3.2-27.3L263.7,154.7z"/>
	<path class="st0" d="M753.8,135v94.2h18.7v-25.1h16.1c2.6,0,4.8-0.3,6.5-1c1.7-0.6,3.1-1.5,4.2-2.7c1-1.1,1.8-2.4,2.1-4
		c0.4-1.5,0.6-3.2,0.6-5v-45.1c0-3.5-0.9-6.2-2.8-8.3c-1.9-2.1-4.7-3.1-8.4-3.1H753.8z M782.1,151.5c1.1,0,1.7,0.6,1.7,1.8v33.3
		c0,0.7-0.1,1.2-0.3,1.5c-0.2,0.3-0.7,0.5-1.5,0.5h-9.4v-37H782.1z M731.4,229.2c5.5,0,9.3-1.1,11.4-3.4c2.2-2.3,3.2-6,3.2-11.2V135
		h-19.2v75.7c0,0.7-0.1,1.2-0.3,1.6c-0.2,0.3-0.7,0.5-1.5,0.5h-6.6c-0.8,0-1.3-0.2-1.5-0.5c-0.2-0.3-0.3-0.9-0.3-1.6V135h-19.2v79.7
		c0,5.2,1.1,8.9,3.2,11.2c2.2,2.3,6,3.4,11.4,3.4H731.4z M636.4,135l-4.9,17.6h12.6v76.7h19.2v-76.7H676l-4.7-17.6H636.4z
		 M586.3,135H567v40.3h-10.3V135h-19.2v94.2h19.2v-37.7H567v37.7h19.2V135z M515.3,229.2c5.4,0,9.1-1.1,11.2-3.2
		c2.1-2.2,3.2-5.8,3.2-11v-31.1c0-3.6-0.8-6-2.4-7.5c-1.6-1.4-3.9-2.1-7-2.1h-11.8c-1,0-1.7-0.2-2.1-0.5c-0.5-0.3-0.7-1-0.7-1.9
		v-17.2c0-1.4,0.8-2.1,2.3-2.1h21.3l-3.2-17.6h-26c-4.4,0-7.6,1.1-9.7,3.3c-2,2.2-3.1,5.2-3.1,8.9v32c0,2.3,0.3,4.2,0.8,5.6
		c0.6,1.4,1.3,2.5,2.3,3.2c1,0.8,2.1,1.3,3.4,1.5c1.3,0.2,2.6,0.3,4,0.3h9.8c1.3,0,2.2,0.1,2.7,0.4c0.5,0.3,0.8,1,0.8,2.3v17.2
		c0,1.3-0.7,1.9-2.2,1.9h-20.3l3.4,17.5H515.3z M440.7,189.8l-7.5-54.9h-13.6l-7.7,54.9l-6-54.9h-19.2l14.8,94.2h17.2l7.7-49.1
		l7.8,49.1h17.2L466,135h-19.2L440.7,189.8z M381.4,147.2c0-3.7-1-6.7-3.1-8.9c-2-2.2-5.3-3.3-9.7-3.3h-23.4c-4.4,0-7.6,1.1-9.7,3.3
		c-2,2.2-3.1,5.2-3.1,8.9v68.6c0,1.8,0.2,3.5,0.6,5.1c0.4,1.6,1.2,3,2.2,4.2c1,1.2,2.4,2.2,4.2,2.9c1.7,0.7,3.9,1.1,6.5,1.1h21.8
		c2.6,0,4.8-0.4,6.5-1.1c1.7-0.7,3.1-1.7,4.2-2.9c1-1.2,1.8-2.6,2.2-4.2c0.4-1.6,0.6-3.3,0.6-5.1V147.2z M360.6,151.5
		c1.1,0,1.7,0.6,1.7,1.8v57.5c0,0.7-0.1,1.2-0.3,1.5c-0.2,0.3-0.7,0.5-1.5,0.5h-7.2c-0.8,0-1.3-0.2-1.5-0.5
		c-0.2-0.3-0.3-0.8-0.3-1.5v-57.5c0-1.2,0.6-1.8,1.7-1.8H360.6z M288.3,229.2h35.1l3.2-17.5h-19V135h-19.4V229.2z M279.6,146.4
		c0-3.5-0.9-6.2-2.8-8.3c-1.9-2.1-4.7-3.1-8.4-3.1h-36.8v94.2h34.2c5.5,0,9.3-1.1,11.4-3.4c2.2-2.3,3.2-6,3.2-11.2v-24.4
		c0-2.1-0.6-3.9-1.8-5.6c-1.2-1.6-3.1-2.6-5.7-2.7c2.5-0.7,4.2-1.9,5.1-3.6c0.9-1.7,1.4-3.7,1.4-6V146.4z M261.8,210.8
		c0,0.7-0.1,1.2-0.4,1.5c-0.3,0.3-0.8,0.5-1.6,0.5h-9.5v-22.2h8.6c0.9,0,1.6,0.2,2.1,0.6s0.8,1.1,0.8,2.1V210.8z M259.8,151.5
		c1.1,0,1.7,0.6,1.7,1.8v20.4c0,0.9-0.2,1.5-0.6,1.9c-0.4,0.4-1,0.6-1.7,0.6h-8.8v-24.7H259.8z"/>
	<path class="st0" d="M599.8,212.2c3.1-3.7,7-5.7,11.7-6.2c4.7-0.4,8.9,0.9,12.6,4c3.7,3.1,5.7,7,6.2,11.7c0.4,4.7-0.9,8.9-4,12.5
		c-3.1,3.6-7,5.6-11.8,6.1c-4.7,0.4-8.9-0.9-12.6-3.9c-3.7-3-5.7-6.9-6.2-11.6C595.4,220.1,596.7,215.9,599.8,212.2 M600.5,197
		l19.8-2.2l-2-98.5l-31.8,3.1L600.5,197z"/>
</g>
<polygon points="617.7,96.3 627.5,109.6 622.6,192.8 620.3,194.8 "/>
</svg>
