<?xml version="1.0" encoding="utf-8"?>
<!-- Generator: Adobe Illustrator 19.1.0, SVG Export Plug-In . SVG Version: 6.00 Build 0)  -->
<svg version="1.1" id="Layer_1" xmlns="http://www.w3.org/2000/svg" xmlns:xlink="http://www.w3.org/1999/xlink" x="0px" y="0px"
	 viewBox="0 0 920 430" style="enable-background:new 0 0 920 430;" xml:space="preserve">
<style type="text/css">
	.st0{fill:#FDFDFD;stroke:#6EB5CC;stroke-width:5;stroke-miterlimit:10;}
	.st1{fill:#6EB5CC;}
	.st2{fill:#7744BB;}
	.st3{fill:#FDFDFD;}
	.st4{fill:none;stroke:#6EB5CC;stroke-width:5;stroke-miterlimit:10;}
	.st5{fill:none;stroke:#000000;stroke-width:5;stroke-miterlimit:10;}
	.st6{fill:none;stroke:#6EB5CC;stroke-width:3;stroke-miterlimit:10;}
	.st7{stroke:#000000;stroke-width:3;stroke-miterlimit:10;}
	.st8{fill:#FDFDFD;stroke:#FDFDFD;stroke-width:3;stroke-miterlimit:10;}
</style>
<rect x="10" y="10" class="st0" width="200" height="166.6"/>
<path class="st1" d="M180.8,157.8l-7.6-5.9c3.2-3.8,4.9-8,4.9-12.5c0-2.9-1.1-4.4-2.8-4.4h-0.1c-1.7,0-2.6,1.3-3.9,6.5
	c-2,8.2-4.5,14.5-12.9,14.5h-0.1c-7.7,0-13.2-5.7-13.2-14.9c0-6.5,1.9-11.7,5.5-15.8l8.1,5.3c-2.6,3.5-4.1,7.4-4.1,10.8
	c0,2.6,1.2,3.9,2.6,3.9h0.1c1.9,0,2.7-1.3,4-6.7c2.1-8.9,5.1-14.4,12.8-14.4h0.1c8.4,0,13.4,6.2,13.4,15.6
	C187.6,146.6,185.3,153.1,180.8,157.8z"/>
<path class="st1" d="M145.7,118.8v-10.7h41.2v10.7H145.7z"/>
<path class="st1" d="M155.7,91.6v11.6h-10V69.4h10v11.6h31.2v10.7H155.7z"/>
<path class="st1" d="M145.7,64.7v-31h9.7v20.4h6.2V35.7h9v18.5h6.5V33.5h9.7v31.3H145.7z"/>
<path d="M10,206.4l1.6-1.8c2.4,2.1,4.8,3.1,8,3.1c3.1,0,5.2-1.6,5.2-3.7v-0.1c0-2-1.2-3.2-6.1-4.2c-5.4-1.1-7.9-2.7-7.9-6.3v-0.1
	c0-3.4,3.2-6,7.7-6c3.4,0,5.9,0.9,8.2,2.7l-1.5,1.9c-2.2-1.7-4.4-2.4-6.8-2.4c-3,0-5,1.6-5,3.5v0.1c0,2.1,1.2,3.2,6.4,4.3
	c5.2,1.1,7.6,2.8,7.6,6.2v0.1c0,3.8-3.3,6.2-8,6.2C15.9,209.9,12.8,208.8,10,206.4z"/>
<path d="M31.9,198.7L31.9,198.7c0-6.1,4.9-11.4,12-11.4c7.1,0,11.9,5.2,11.9,11.3v0.1c0,6-4.9,11.3-12,11.3
	C36.7,210,31.9,204.8,31.9,198.7z M53.1,198.7L53.1,198.7c0-5-3.9-9.1-9.2-9.1s-9.2,4-9.2,9v0.1c0,5,3.9,9,9.2,9
	S53.1,203.7,53.1,198.7z"/>
<path d="M61.4,187.7h2.6v19.6h13.2v2.3H61.4V187.7z"/>
<path d="M81.1,200.4v-12.7h2.6v12.6c0,4.7,2.7,7.4,7.2,7.4c4.3,0,7.1-2.4,7.1-7.2v-12.7h2.6v12.6c0,6.4-3.9,9.7-9.8,9.7
	C85.1,210,81.1,206.6,81.1,200.4z"/>
<path d="M113.1,190h-7.9v-2.3h18.4v2.3h-7.9v19.6h-2.7V190z"/>
<path d="M128.8,187.7h2.6v21.9h-2.6V187.7z"/>
<path d="M137.3,198.7L137.3,198.7c0-6.1,4.9-11.4,12-11.4c7.1,0,11.9,5.2,11.9,11.3v0.1c0,6-4.9,11.3-12,11.3
	C142.1,210,137.3,204.8,137.3,198.7z M158.5,198.7L158.5,198.7c0-5-3.9-9.1-9.2-9.1s-9.2,4-9.2,9v0.1c0,5,3.9,9,9.2,9
	S158.5,203.7,158.5,198.7z"/>
<path d="M166.8,187.7h2.5l14.8,17.6v-17.6h2.6v21.9h-2.1l-15.1-18v18h-2.6V187.7z"/>
<path d="M191.7,206.4l1.6-1.8c2.4,2.1,4.8,3.1,8,3.1c3.1,0,5.2-1.6,5.2-3.7v-0.1c0-2-1.2-3.2-6.1-4.2c-5.4-1.1-7.9-2.7-7.9-6.3v-0.1
	c0-3.4,3.2-6,7.7-6c3.4,0,5.9,0.9,8.2,2.7l-1.5,1.9c-2.2-1.7-4.4-2.4-6.8-2.4c-3,0-5,1.6-5,3.5v0.1c0,2.1,1.2,3.2,6.4,4.3
	c5.2,1.1,7.6,2.8,7.6,6.2v0.1c0,3.8-3.3,6.2-8,6.2C197.6,209.9,194.5,208.8,191.7,206.4z"/>
<path class="st2" d="M36,33h21.3l0.2,102.4c0,0,0,3.1,4.4,2.9c4.1-0.2,4.1-2.3,4.1-2.3V33h22v101.9c0,0-1.8,18.8-26.8,19.3
	c-25,0.5-25.2-19.3-25.2-19.3V33z"/>
<path class="st2" d="M140.5,55.3c0,0,1.1-8.5-6.7-15.8c-7.7-7.3-18.7-6.5-18.7-6.5H91v121h22.4l0-44.9c0,0,14.6-0.4,20.7-5.7
	c5.3-4.7,6-8.4,6.4-9.9C141.2,90.3,140.5,55.3,140.5,55.3z M120.1,87.1c-0.6,1.9-1.6,3.4-2.4,4c-1.3,1-4.7,1.5-4.7,1.5V54h-10.7
	l14.1-14.1l15,14.1h-11C120.3,54,120.7,85.2,120.1,87.1z"/>
<path class="st1" d="M178.2,375.3l-7.5-5.9c3.2-3.8,4.9-8,4.9-12.5c0-2.9-1-4.4-2.8-4.4h-0.1c-1.7,0-2.6,1.3-3.9,6.5
	c-2,8.2-4.4,14.5-12.8,14.5h-0.1c-7.6,0-13-5.7-13-14.9c0-6.5,1.9-11.7,5.4-15.8l8,5.3c-2.6,3.5-4,7.4-4,10.8c0,2.6,1.2,3.9,2.6,3.9
	h0.1c1.9,0,2.7-1.3,4-6.7c2-8.9,5.1-14.4,12.7-14.4h0.1c8.3,0,13.3,6.2,13.3,15.6C185,364,182.7,370.5,178.2,375.3z"/>
<path class="st1" d="M144.7,336.2v-10.7h41.2v10.7H144.7z"/>
<path class="st1" d="M154.7,309.1v11.6h-10v-33.8h10v11.6h31.2v10.7H154.7z"/>
<path class="st1" d="M144.7,282.2v-31h9.7v20.4h6.2v-18.5h9v18.5h6.5v-20.7h9.7v31.3H144.7z"/>
<path class="st2" d="M35,250h21.1l0.2,102.7c0,0,0.2,3.2,4.5,3c4-0.2,4.3-2.2,4.3-2.2V250h21v102.3c0,0-1.6,18.8-26.3,19.3
	S35,352.3,35,352.3V250z"/>
<path class="st2" d="M138.4,272.8c0,0,1.1-8.8-6.6-16c-7.6-7.3-18.5-6.8-18.5-6.8H89v121h22.6l0-44.7c0,0,14.5-0.3,20.5-5.6
	c5.3-4.7,6-8.4,6.3-9.9C139.1,307.7,138.4,272.8,138.4,272.8z M118.2,304.4c-0.6,1.9-1.7,3.5-2.4,4.1c-1.2,1-4.7,1.6-4.7,1.6v-39
	h-10.4l14-14.1l14.8,14.1h-10.9C118.5,271,118.8,302.4,118.2,304.4z"/>
<rect x="240" y="10" class="st0" width="200" height="166.6"/>
<path class="st1" d="M410.8,157.8l-7.6-5.9c3.2-3.8,4.9-8,4.9-12.5c0-2.9-1.1-4.4-2.8-4.4h-0.1c-1.7,0-2.6,1.3-3.9,6.5
	c-2,8.2-4.5,14.5-12.9,14.5h-0.1c-7.7,0-13.2-5.7-13.2-14.9c0-6.5,1.9-11.7,5.5-15.8l8.1,5.3c-2.6,3.5-4.1,7.4-4.1,10.8
	c0,2.6,1.2,3.9,2.6,3.9h0.1c1.9,0,2.7-1.3,4-6.7c2.1-8.9,5.1-14.4,12.8-14.4h0.1c8.4,0,13.4,6.2,13.4,15.6
	C417.6,146.6,415.3,153.1,410.8,157.8z"/>
<path class="st1" d="M375.7,118.8v-10.7h41.2v10.7H375.7z"/>
<path class="st1" d="M385.7,91.6v11.6h-10V69.4h10v11.6h31.2v10.7H385.7z"/>
<path class="st1" d="M375.7,64.7v-31h9.7v20.4h6.2V35.7h9v18.5h6.5V33.5h9.7v31.3H375.7z"/>
<path class="st3" d="M240,206.4l1.6-1.8c2.4,2.1,4.8,3.1,8,3.1c3.1,0,5.2-1.6,5.2-3.7v-0.1c0-2-1.2-3.2-6.1-4.2
	c-5.4-1.1-7.9-2.7-7.9-6.3v-0.1c0-3.4,3.2-6,7.7-6c3.4,0,5.9,0.9,8.2,2.7l-1.5,1.9c-2.2-1.7-4.4-2.4-6.8-2.4c-3,0-5,1.6-5,3.5v0.1
	c0,2.1,1.2,3.2,6.4,4.3c5.2,1.1,7.6,2.8,7.6,6.2v0.1c0,3.8-3.3,6.2-8,6.2C245.9,209.9,242.8,208.8,240,206.4z"/>
<path class="st3" d="M261.9,198.7L261.9,198.7c0-6.1,4.9-11.4,12-11.4c7.1,0,11.9,5.2,11.9,11.3v0.1c0,6-4.9,11.3-12,11.3
	C266.7,210,261.9,204.8,261.9,198.7z M283.1,198.7L283.1,198.7c0-5-3.9-9.1-9.2-9.1c-5.4,0-9.2,4-9.2,9v0.1c0,5,3.9,9,9.2,9
	S283.1,203.7,283.1,198.7z"/>
<path class="st3" d="M291.4,187.7h2.6v19.6h13.2v2.3h-15.8V187.7z"/>
<path class="st3" d="M311.1,200.4v-12.7h2.6v12.6c0,4.7,2.7,7.4,7.2,7.4c4.3,0,7.1-2.4,7.1-7.2v-12.7h2.6v12.6
	c0,6.4-3.9,9.7-9.8,9.7C315.1,210,311.1,206.6,311.1,200.4z"/>
<path class="st3" d="M343.1,190h-7.9v-2.3h18.4v2.3h-7.9v19.6h-2.7V190z"/>
<path class="st3" d="M358.8,187.7h2.6v21.9h-2.6V187.7z"/>
<path class="st3" d="M367.3,198.7L367.3,198.7c0-6.1,4.9-11.4,12-11.4c7.1,0,11.9,5.2,11.9,11.3v0.1c0,6-4.9,11.3-12,11.3
	C372.1,210,367.3,204.8,367.3,198.7z M388.5,198.7L388.5,198.7c0-5-3.9-9.1-9.2-9.1c-5.4,0-9.2,4-9.2,9v0.1c0,5,3.9,9,9.2,9
	C384.7,207.7,388.5,203.7,388.5,198.7z"/>
<path class="st3" d="M396.8,187.7h2.5l14.8,17.6v-17.6h2.6v21.9h-2.1l-15.1-18v18h-2.6V187.7z"/>
<path class="st3" d="M421.7,206.4l1.6-1.8c2.4,2.1,4.8,3.1,8,3.1c3.1,0,5.2-1.6,5.2-3.7v-0.1c0-2-1.2-3.2-6.1-4.2
	c-5.4-1.1-7.9-2.7-7.9-6.3v-0.1c0-3.4,3.2-6,7.7-6c3.4,0,5.9,0.9,8.2,2.7l-1.5,1.9c-2.2-1.7-4.4-2.4-6.8-2.4c-3,0-5,1.6-5,3.5v0.1
	c0,2.1,1.2,3.2,6.4,4.3c5.2,1.1,7.6,2.8,7.6,6.2v0.1c0,3.8-3.3,6.2-8,6.2C427.6,209.9,424.5,208.8,421.7,206.4z"/>
<path class="st2" d="M266,33h21v102.4c0,0,0.2,3.1,4.5,2.9c4.1-0.2,4.2-2.3,4.2-2.3l-0.1-103H318v101.9c0,0-1.8,18.8-26.8,19.3
	c-25,0.5-25.2-19.3-25.2-19.3V33z"/>
<path class="st2" d="M370.5,55.3c0,0,1.1-8.5-6.7-15.8c-7.7-7.3-18.7-6.5-18.7-6.5H321v121h22.4l0-44.9c0,0,14.6-0.4,20.7-5.7
	c5.3-4.7,6-8.4,6.4-9.9C371.2,90.3,370.5,55.3,370.5,55.3z M350.1,87.1c-0.6,1.9-1.6,3.4-2.4,4c-1.3,1-4.7,1.5-4.7,1.5V54h-10.7
	l14.1-14.1l15,14.1h-11C350.3,54,350.7,85.2,350.1,87.1z"/>
<rect x="470" y="10" class="st4" width="200" height="166.6"/>
<path class="st1" d="M640.8,157.8l-7.6-5.9c3.2-3.8,4.9-8,4.9-12.5c0-2.9-1.1-4.4-2.8-4.4h-0.1c-1.7,0-2.6,1.3-3.9,6.5
	c-2,8.2-4.5,14.5-12.9,14.5h-0.1c-7.7,0-13.2-5.7-13.2-14.9c0-6.5,1.9-11.7,5.5-15.8l8.1,5.3c-2.6,3.5-4.1,7.4-4.1,10.8
	c0,2.6,1.2,3.9,2.6,3.9h0.1c1.9,0,2.7-1.3,4-6.7c2.1-8.9,5.1-14.4,12.8-14.4h0.1c8.4,0,13.4,6.2,13.4,15.6
	C647.6,146.6,645.3,153.1,640.8,157.8z"/>
<path class="st1" d="M605.7,118.8v-10.7h41.2v10.7H605.7z"/>
<path class="st1" d="M615.7,91.6v11.6h-10V69.4h10v11.6h31.2v10.7H615.7z"/>
<path class="st1" d="M605.7,64.7v-31h9.7v20.4h6.2V35.7h9v18.5h6.5V33.5h9.7v31.3H605.7z"/>
<path class="st3" d="M470,206.4l1.6-1.8c2.4,2.1,4.8,3.1,8,3.1c3.1,0,5.2-1.6,5.2-3.7v-0.1c0-2-1.2-3.2-6.1-4.2
	c-5.4-1.1-7.9-2.7-7.9-6.3v-0.1c0-3.4,3.2-6,7.7-6c3.4,0,5.9,0.9,8.2,2.7l-1.5,1.9c-2.2-1.7-4.4-2.4-6.8-2.4c-3,0-5,1.6-5,3.5v0.1
	c0,2.1,1.2,3.2,6.4,4.3c5.2,1.1,7.6,2.8,7.6,6.2v0.1c0,3.8-3.3,6.2-8,6.2C475.9,209.9,472.8,208.8,470,206.4z"/>
<path class="st3" d="M491.9,198.7L491.9,198.7c0-6.1,4.9-11.4,12-11.4c7.1,0,11.9,5.2,11.9,11.3v0.1c0,6-4.9,11.3-12,11.3
	C496.7,210,491.9,204.8,491.9,198.7z M513.1,198.7L513.1,198.7c0-5-3.9-9.1-9.2-9.1c-5.4,0-9.2,4-9.2,9v0.1c0,5,3.9,9,9.2,9
	S513.1,203.7,513.1,198.7z"/>
<path class="st3" d="M521.4,187.7h2.6v19.6h13.2v2.3h-15.8V187.7z"/>
<path class="st3" d="M541.1,200.4v-12.7h2.6v12.6c0,4.7,2.7,7.4,7.2,7.4c4.3,0,7.1-2.4,7.1-7.2v-12.7h2.6v12.6
	c0,6.4-3.9,9.7-9.8,9.7C545.1,210,541.1,206.6,541.1,200.4z"/>
<path class="st3" d="M573.1,190h-7.9v-2.3h18.4v2.3h-7.9v19.6h-2.7V190z"/>
<path class="st3" d="M588.8,187.7h2.6v21.9h-2.6V187.7z"/>
<path class="st3" d="M597.3,198.7L597.3,198.7c0-6.1,4.9-11.4,12-11.4c7.1,0,11.9,5.2,11.9,11.3v0.1c0,6-4.9,11.3-12,11.3
	C602.1,210,597.3,204.8,597.3,198.7z M618.5,198.7L618.5,198.7c0-5-3.9-9.1-9.2-9.1c-5.4,0-9.2,4-9.2,9v0.1c0,5,3.9,9,9.2,9
	C614.7,207.7,618.5,203.7,618.5,198.7z"/>
<path class="st3" d="M626.8,187.7h2.5l14.8,17.6v-17.6h2.6v21.9h-2.1l-15.1-18v18h-2.6V187.7z"/>
<path class="st3" d="M651.7,206.4l1.6-1.8c2.4,2.1,4.8,3.1,8,3.1c3.1,0,5.2-1.6,5.2-3.7v-0.1c0-2-1.2-3.2-6.1-4.2
	c-5.4-1.1-7.9-2.7-7.9-6.3v-0.1c0-3.4,3.2-6,7.7-6c3.4,0,5.9,0.9,8.2,2.7l-1.5,1.9c-2.2-1.7-4.4-2.4-6.8-2.4c-3,0-5,1.6-5,3.5v0.1
	c0,2.1,1.2,3.2,6.4,4.3c5.2,1.1,7.6,2.8,7.6,6.2v0.1c0,3.8-3.3,6.2-8,6.2C657.6,209.9,654.5,208.8,651.7,206.4z"/>
<path class="st2" d="M496,33h21.3l0.2,102.4c0,0,0,3.1,4.4,2.9c4.1-0.2,4.1-2.3,4.1-2.3V33h22v101.9c0,0-1.8,18.8-26.8,19.3
	c-25,0.5-25.2-19.3-25.2-19.3V33z"/>
<path class="st2" d="M600.5,55.3c0,0,1.1-8.5-6.7-15.8c-7.7-7.3-18.7-6.5-18.7-6.5H551v121h22.4l0-44.9c0,0,14.6-0.4,20.7-5.7
	c5.3-4.7,6-8.4,6.4-9.9C601.2,90.3,600.5,55.3,600.5,55.3z M580.1,87.1c-0.6,1.9-1.6,3.4-2.4,4c-1.3,1-4.7,1.5-4.7,1.5V54h-10.7
	l14.1-14.1l15,14.1h-11.3C580.1,54,580.7,85.2,580.1,87.1z"/>
<rect x="700" y="10" class="st5" width="200" height="166.6"/>
<path d="M870.8,157.8l-7.6-5.9c3.2-3.8,4.9-8,4.9-12.5c0-2.9-1.1-4.4-2.8-4.4h-0.1c-1.7,0-2.6,1.3-3.9,6.5
	c-2,8.2-4.5,14.5-12.9,14.5h-0.1c-7.7,0-13.2-5.7-13.2-14.9c0-6.5,1.9-11.7,5.5-15.8l8.1,5.3c-2.6,3.5-4.1,7.4-4.1,10.8
	c0,2.6,1.2,3.9,2.6,3.9h0.1c1.9,0,2.7-1.3,4-6.7c2.1-8.9,5.1-14.4,12.8-14.4h0.1c8.4,0,13.4,6.2,13.4,15.6
	C877.6,146.6,875.3,153.1,870.8,157.8z"/>
<path d="M835.7,118.8v-10.7h41.2v10.7H835.7z"/>
<path d="M845.7,91.6v11.6h-10V69.4h10v11.6h31.2v10.7H845.7z"/>
<path d="M835.7,64.7v-31h9.7v20.4h6.2V35.7h9v18.5h6.5V33.5h9.7v31.3H835.7z"/>
<path d="M700,206.4l1.6-1.8c2.4,2.1,4.8,3.1,8,3.1c3.1,0,5.2-1.6,5.2-3.7v-0.1c0-2-1.2-3.2-6.1-4.2c-5.4-1.1-7.9-2.7-7.9-6.3v-0.1
	c0-3.4,3.2-6,7.7-6c3.4,0,5.9,0.9,8.2,2.7l-1.5,1.9c-2.2-1.7-4.4-2.4-6.8-2.4c-3,0-5,1.6-5,3.5v0.1c0,2.1,1.2,3.2,6.4,4.3
	c5.2,1.1,7.6,2.8,7.6,6.2v0.1c0,3.8-3.3,6.2-8,6.2C705.9,209.9,702.8,208.8,700,206.4z"/>
<path d="M721.9,198.7L721.9,198.7c0-6.1,4.9-11.4,12-11.4c7.1,0,11.9,5.2,11.9,11.3v0.1c0,6-4.9,11.3-12,11.3
	C726.7,210,721.9,204.8,721.9,198.7z M743.1,198.7L743.1,198.7c0-5-3.9-9.1-9.2-9.1s-9.2,4-9.2,9v0.1c0,5,3.9,9,9.2,9
	S743.1,203.7,743.1,198.7z"/>
<path d="M751.4,187.7h2.6v19.6h13.2v2.3h-15.8V187.7z"/>
<path d="M771.1,200.4v-12.7h2.6v12.6c0,4.7,2.7,7.4,7.2,7.4c4.3,0,7.1-2.4,7.1-7.2v-12.7h2.6v12.6c0,6.4-3.9,9.7-9.8,9.7
	C775.1,210,771.1,206.6,771.1,200.4z"/>
<path d="M803.1,190h-7.9v-2.3h18.4v2.3h-7.9v19.6h-2.7V190z"/>
<path d="M818.8,187.7h2.6v21.9h-2.6V187.7z"/>
<path d="M827.3,198.7L827.3,198.7c0-6.1,4.9-11.4,12-11.4c7.1,0,11.9,5.2,11.9,11.3v0.1c0,6-4.9,11.3-12,11.3
	C832.1,210,827.3,204.8,827.3,198.7z M848.5,198.7L848.5,198.7c0-5-3.9-9.1-9.2-9.1c-5.4,0-9.2,4-9.2,9v0.1c0,5,3.9,9,9.2,9
	C844.7,207.7,848.5,203.7,848.5,198.7z"/>
<path d="M856.8,187.7h2.5l14.8,17.6v-17.6h2.6v21.9h-2.1l-15.1-18v18h-2.6V187.7z"/>
<path d="M881.7,206.4l1.6-1.8c2.4,2.1,4.8,3.1,8,3.1c3.1,0,5.2-1.6,5.2-3.7v-0.1c0-2-1.2-3.2-6.1-4.2c-5.4-1.1-7.9-2.7-7.9-6.3v-0.1
	c0-3.4,3.2-6,7.7-6c3.4,0,5.9,0.9,8.2,2.7l-1.5,1.9c-2.2-1.7-4.4-2.4-6.8-2.4c-3,0-5,1.6-5,3.5v0.1c0,2.1,1.2,3.2,6.4,4.3
	c5.2,1.1,7.6,2.8,7.6,6.2v0.1c0,3.8-3.3,6.2-8,6.2C887.6,209.9,884.5,208.8,881.7,206.4z"/>
<path d="M726,33h21.3l0.2,102.4c0,0,0,3.1,4.4,2.9c4.1-0.2,4.1-2.3,4.1-2.3V33h22v101.9c0,0-1.8,18.8-26.8,19.3
	c-25,0.5-25.2-19.3-25.2-19.3V33z"/>
<path d="M830.5,55.3c0,0,1.1-8.5-6.7-15.8c-7.7-7.3-18.7-6.5-18.7-6.5H781v121h22.4l0-44.9c0,0,14.6-0.4,20.7-5.7
	c5.3-4.7,6-8.4,6.4-9.9C831.2,90.3,830.5,55.3,830.5,55.3z M810.1,87.1c-0.6,1.9-1.6,3.4-2.4,4c-1.3,1-4.7,1.5-4.7,1.5V54h-10.7
	l14.1-14.1l15,14.1h-11.3C810.1,54,810.7,85.2,810.1,87.1z"/>
<path d="M35,409.2l1.2-1.4c1.8,1.6,3.6,2.4,6,2.4c2.4,0,3.9-1.2,3.9-2.9v0c0-1.6-0.9-2.5-4.6-3.3c-4.1-0.9-5.9-2.1-5.9-5v0
	c0-2.7,2.4-4.7,5.8-4.7c2.6,0,4.4,0.7,6.2,2.1l-1.2,1.5c-1.6-1.3-3.3-1.9-5.1-1.9c-2.3,0-3.8,1.2-3.8,2.8v0c0,1.6,0.9,2.5,4.8,3.3
	c3.9,0.8,5.7,2.2,5.7,4.9v0c0,3-2.5,4.9-6,4.9C39.4,412,37.1,411,35,409.2z"/>
<path d="M51.5,403.1L51.5,403.1c0-4.8,3.7-9,9-9c5.4,0,9,4.1,9,8.9v0c0,4.8-3.7,8.9-9,8.9C55.1,412,51.5,407.9,51.5,403.1z
	 M67.4,403.1L67.4,403.1c0-4-2.9-7.2-7-7.2s-6.9,3.2-6.9,7.1v0c0,3.9,2.9,7.1,7,7.1S67.4,407.1,67.4,403.1z"/>
<path d="M73.7,394.5h2v15.4h9.9v1.8H73.7V394.5z"/>
<path d="M88.5,404.5v-10h2v9.9c0,3.7,2,5.8,5.4,5.8c3.3,0,5.3-1.9,5.3-5.7v-10h2v9.9c0,5-2.9,7.6-7.4,7.6
	C91.5,412,88.5,409.4,88.5,404.5z"/>
<path d="M112.6,396.3h-5.9v-1.8h13.9v1.8h-5.9v15.4h-2V396.3z"/>
<path d="M124.4,394.5h2v17.2h-2V394.5z"/>
<path d="M130.8,403.1L130.8,403.1c0-4.8,3.7-9,9-9c5.4,0,9,4.1,9,8.9v0c0,4.8-3.7,8.9-9,8.9C134.4,412,130.8,407.9,130.8,403.1z
	 M146.7,403.1L146.7,403.1c0-4-2.9-7.2-7-7.2s-6.9,3.2-6.9,7.1v0c0,3.9,2.9,7.1,7,7.1C143.9,410.2,146.7,407.1,146.7,403.1z"/>
<path d="M153,394.5h1.9l11.1,13.8v-13.8h1.9v17.2h-1.6L155,397.6v14.1H153V394.5z"/>
<path d="M171.8,409.2l1.2-1.4c1.8,1.6,3.6,2.4,6,2.4c2.4,0,3.9-1.2,3.9-2.9v0c0-1.6-0.9-2.5-4.6-3.3c-4.1-0.9-5.9-2.1-5.9-5v0
	c0-2.7,2.4-4.7,5.8-4.7c2.6,0,4.4,0.7,6.2,2.1l-1.2,1.5c-1.6-1.3-3.3-1.9-5.1-1.9c-2.3,0-3.8,1.2-3.8,2.8v0c0,1.6,0.9,2.5,4.8,3.3
	c3.9,0.8,5.7,2.2,5.7,4.9v0c0,3-2.5,4.9-6,4.9C176.2,412,173.9,411,171.8,409.2z"/>
<line class="st6" x1="35" y1="384.5" x2="185" y2="384.5"/>
<path class="st1" d="M396.2,375.3l-7.5-5.9c3.2-3.8,4.9-8,4.9-12.5c0-2.9-1-4.4-2.8-4.4h-0.1c-1.7,0-2.6,1.3-3.9,6.5
	c-2,8.2-4.4,14.5-12.8,14.5h-0.1c-7.6,0-13-5.7-13-14.9c0-6.5,1.9-11.7,5.4-15.8l8,5.3c-2.6,3.5-4,7.4-4,10.8c0,2.6,1.2,3.9,2.6,3.9
	h0.1c1.9,0,2.7-1.3,4-6.7c2-8.9,5.1-14.4,12.7-14.4h0.1c8.3,0,13.3,6.2,13.3,15.6C403,364,400.7,370.5,396.2,375.3z"/>
<path class="st1" d="M362.7,336.2v-10.7h41.2v10.7H362.7z"/>
<path class="st1" d="M372.7,309.1v11.6h-10v-33.8h10v11.6h31.2v10.7H372.7z"/>
<path class="st1" d="M362.7,282.2v-31h9.7v20.4h6.2v-18.5h9v18.5h6.5v-20.7h9.7v31.3H362.7z"/>
<path class="st2" d="M253,250h21.1l0.2,102.7c0,0,0.2,3.2,4.5,3c4-0.2,4.3-2.2,4.3-2.2V250h21v102.3c0,0-1.6,18.8-26.3,19.3
	S253,352.3,253,352.3V250z"/>
<path class="st2" d="M356.4,272.8c0,0,1.1-8.8-6.6-16c-7.6-7.3-18.5-6.8-18.5-6.8H307v121h22.6l0-44.7c0,0,14.5-0.3,20.5-5.6
	c5.3-4.7,6-8.4,6.3-9.9C357.1,307.7,356.4,272.8,356.4,272.8z M336.2,304.4c-0.6,1.9-1.7,3.5-2.4,4.1c-1.2,1-4.7,1.6-4.7,1.6v-39
	h-10.4l14-14.1l14.8,14.1h-10.9C336.5,271,336.8,302.4,336.2,304.4z"/>
<path class="st3" d="M253,409.2l1.2-1.4c1.8,1.6,3.6,2.4,6,2.4c2.4,0,3.9-1.2,3.9-2.9v0c0-1.6-0.9-2.5-4.6-3.3
	c-4.1-0.9-5.9-2.1-5.9-5v0c0-2.7,2.4-4.7,5.8-4.7c2.6,0,4.4,0.7,6.2,2.1l-1.2,1.5c-1.6-1.3-3.3-1.9-5.1-1.9c-2.3,0-3.8,1.2-3.8,2.8
	v0c0,1.6,0.9,2.5,4.8,3.3c3.9,0.8,5.7,2.2,5.7,4.9v0c0,3-2.5,4.9-6,4.9C257.4,412,255.1,411,253,409.2z"/>
<path class="st3" d="M269.5,403.1L269.5,403.1c0-4.8,3.7-9,9-9c5.4,0,9,4.1,9,8.9v0c0,4.8-3.7,8.9-9,8.9
	C273.1,412,269.5,407.9,269.5,403.1z M285.4,403.1L285.4,403.1c0-4-2.9-7.2-7-7.2s-6.9,3.2-6.9,7.1v0c0,3.9,2.9,7.1,7,7.1
	S285.4,407.1,285.4,403.1z"/>
<path class="st3" d="M291.7,394.5h2v15.4h9.9v1.8h-11.9V394.5z"/>
<path class="st3" d="M306.5,404.5v-10h2v9.9c0,3.7,2,5.8,5.4,5.8c3.3,0,5.3-1.9,5.3-5.7v-10h2v9.9c0,5-2.9,7.6-7.4,7.6
	C309.5,412,306.5,409.4,306.5,404.5z"/>
<path class="st3" d="M330.6,396.3h-5.9v-1.8h13.9v1.8h-5.9v15.4h-2V396.3z"/>
<path class="st3" d="M342.4,394.5h2v17.2h-2V394.5z"/>
<path class="st3" d="M348.8,403.1L348.8,403.1c0-4.8,3.7-9,9-9c5.4,0,9,4.1,9,8.9v0c0,4.8-3.7,8.9-9,8.9
	C352.4,412,348.8,407.9,348.8,403.1z M364.7,403.1L364.7,403.1c0-4-2.9-7.2-7-7.2s-6.9,3.2-6.9,7.1v0c0,3.9,2.9,7.1,7,7.1
	S364.7,407.1,364.7,403.1z"/>
<path class="st3" d="M371,394.5h1.9l11.1,13.8v-13.8h1.9v17.2h-1.6L373,397.6v14.1H371V394.5z"/>
<path class="st3" d="M389.8,409.2l1.2-1.4c1.8,1.6,3.6,2.4,6,2.4c2.4,0,3.9-1.2,3.9-2.9v0c0-1.6-0.9-2.5-4.6-3.3
	c-4.1-0.9-5.9-2.1-5.9-5v0c0-2.7,2.4-4.7,5.8-4.7c2.6,0,4.4,0.7,6.2,2.1l-1.2,1.5c-1.6-1.3-3.3-1.9-5.1-1.9c-2.3,0-3.8,1.2-3.8,2.8
	v0c0,1.6,0.9,2.5,4.8,3.3c3.9,0.8,5.7,2.2,5.7,4.9v0c0,3-2.5,4.9-6,4.9C394.2,412,391.9,411,389.8,409.2z"/>
<line class="st6" x1="253" y1="384.5" x2="403" y2="384.5"/>
<path d="M632.2,375.3l-7.5-5.9c3.2-3.8,4.9-8,4.9-12.5c0-2.9-1-4.4-2.8-4.4h-0.1c-1.7,0-2.6,1.3-3.9,6.5c-2,8.2-4.4,14.5-12.8,14.5
	h-0.1c-7.6,0-13-5.7-13-14.9c0-6.5,1.9-11.7,5.4-15.8l8,5.3c-2.6,3.5-4,7.4-4,10.8c0,2.6,1.2,3.9,2.6,3.9h0.1c1.9,0,2.7-1.3,4-6.7
	c2-8.9,5.1-14.4,12.7-14.4h0.1c8.3,0,13.3,6.2,13.3,15.6C639,364,636.7,370.5,632.2,375.3z"/>
<path d="M598.7,336.2v-10.7h41.2v10.7H598.7z"/>
<path d="M608.7,309.1v11.6h-10v-33.8h10v11.6h31.2v10.7H608.7z"/>
<path d="M598.7,282.2v-31h9.7v20.4h6.2v-18.5h9v18.5h6.5v-20.7h9.7v31.3H598.7z"/>
<path d="M489,250h21.1l0.2,102.7c0,0,0.2,3.2,4.5,3c4-0.2,4.3-2.2,4.3-2.2V250h21v102.3c0,0-1.6,18.8-26.3,19.3
	c-24.7,0.5-24.7-19.3-24.7-19.3V250z"/>
<path d="M592.4,272.8c0,0,1.1-8.8-6.6-16c-7.6-7.3-18.5-6.8-18.5-6.8H543v121h22.6l0-44.7c0,0,14.5-0.3,20.5-5.6
	c5.3-4.7,6-8.4,6.3-9.9C593.1,307.7,592.4,272.8,592.4,272.8z M572.2,304.4c-0.6,1.9-1.7,3.5-2.4,4.1c-1.2,1-4.7,1.6-4.7,1.6v-39
	h-10.4l14-14.1l14.8,14.1h-10.9C572.5,271,572.8,302.4,572.2,304.4z"/>
<path d="M489,409.2l1.2-1.4c1.8,1.6,3.6,2.4,6,2.4c2.4,0,3.9-1.2,3.9-2.9v0c0-1.6-0.9-2.5-4.6-3.3c-4.1-0.9-5.9-2.1-5.9-5v0
	c0-2.7,2.4-4.7,5.8-4.7c2.6,0,4.4,0.7,6.2,2.1l-1.2,1.5c-1.6-1.3-3.3-1.9-5.1-1.9c-2.3,0-3.8,1.2-3.8,2.8v0c0,1.6,0.9,2.5,4.8,3.3
	c3.9,0.8,5.7,2.2,5.7,4.9v0c0,3-2.5,4.9-6,4.9C493.4,412,491.1,411,489,409.2z"/>
<path d="M505.5,403.1L505.5,403.1c0-4.8,3.7-9,9-9c5.4,0,9,4.1,9,8.9v0c0,4.8-3.7,8.9-9,8.9C509.1,412,505.5,407.9,505.5,403.1z
	 M521.4,403.1L521.4,403.1c0-4-2.9-7.2-7-7.2s-6.9,3.2-6.9,7.1v0c0,3.9,2.9,7.1,7,7.1S521.4,407.1,521.4,403.1z"/>
<path d="M527.7,394.5h2v15.4h9.9v1.8h-11.9V394.5z"/>
<path d="M542.5,404.5v-10h2v9.9c0,3.7,2,5.8,5.4,5.8c3.3,0,5.3-1.9,5.3-5.7v-10h2v9.9c0,5-2.9,7.6-7.4,7.6
	C545.5,412,542.5,409.4,542.5,404.5z"/>
<path d="M566.6,396.3h-5.9v-1.8h13.9v1.8h-5.9v15.4h-2V396.3z"/>
<path d="M578.4,394.5h2v17.2h-2V394.5z"/>
<path d="M584.8,403.1L584.8,403.1c0-4.8,3.7-9,9-9c5.4,0,9,4.1,9,8.9v0c0,4.8-3.7,8.9-9,8.9C588.4,412,584.8,407.9,584.8,403.1z
	 M600.7,403.1L600.7,403.1c0-4-2.9-7.2-7-7.2s-6.9,3.2-6.9,7.1v0c0,3.9,2.9,7.1,7,7.1S600.7,407.1,600.7,403.1z"/>
<path d="M607,394.5h1.9l11.1,13.8v-13.8h1.9v17.2h-1.6L609,397.6v14.1H607V394.5z"/>
<path d="M625.8,409.2l1.2-1.4c1.8,1.6,3.6,2.4,6,2.4c2.4,0,3.9-1.2,3.9-2.9v0c0-1.6-0.9-2.5-4.6-3.3c-4.1-0.9-5.9-2.1-5.9-5v0
	c0-2.7,2.4-4.7,5.8-4.7c2.6,0,4.4,0.7,6.2,2.1l-1.2,1.5c-1.6-1.3-3.3-1.9-5.1-1.9c-2.3,0-3.8,1.2-3.8,2.8v0c0,1.6,0.9,2.5,4.8,3.3
	c3.9,0.8,5.7,2.2,5.7,4.9v0c0,3-2.5,4.9-6,4.9C630.2,412,627.9,411,625.8,409.2z"/>
<line class="st7" x1="489" y1="384.5" x2="639" y2="384.5"/>
<path class="st3" d="M869.2,375.3l-7.5-5.9c3.2-3.8,4.9-8,4.9-12.5c0-2.9-1-4.4-2.8-4.4h-0.1c-1.7,0-2.6,1.3-3.9,6.5
	c-2,8.2-4.4,14.5-12.8,14.5h-0.1c-7.6,0-13-5.7-13-14.9c0-6.5,1.9-11.7,5.4-15.8l8,5.3c-2.6,3.5-4,7.4-4,10.8c0,2.6,1.2,3.9,2.6,3.9
	h0.1c1.9,0,2.7-1.3,4-6.7c2-8.9,5.1-14.4,12.7-14.4h0.1c8.3,0,13.3,6.2,13.3,15.6C876,364,873.7,370.5,869.2,375.3z"/>
<path class="st3" d="M835.7,336.2v-10.7h41.2v10.7H835.7z"/>
<path class="st3" d="M845.7,309.1v11.6h-10v-33.8h10v11.6h31.2v10.7H845.7z"/>
<path class="st3" d="M835.7,282.2v-31h9.7v20.4h6.2v-18.5h9v18.5h6.5v-20.7h9.7v31.3H835.7z"/>
<path class="st3" d="M726,250h21.1l0.2,102.7c0,0,0.2,3.2,4.5,3c4-0.2,4.3-2.2,4.3-2.2V250h21v102.3c0,0-1.6,18.8-26.3,19.3
	c-24.7,0.5-24.7-19.3-24.7-19.3V250z"/>
<path class="st3" d="M829.4,272.8c0,0,1.1-8.8-6.6-16c-7.6-7.3-18.5-6.8-18.5-6.8H780v121h22.6l0-44.7c0,0,14.5-0.3,20.5-5.6
	c5.3-4.7,6-8.4,6.3-9.9C830.1,307.7,829.4,272.8,829.4,272.8z M809.2,304.4c-0.6,1.9-1.7,3.5-2.4,4.1c-1.2,1-4.7,1.6-4.7,1.6v-39
	h-10.4l14-14.1l14.8,14.1h-10.9C809.5,271,809.8,302.4,809.2,304.4z"/>
<path class="st3" d="M726,409.2l1.2-1.4c1.8,1.6,3.6,2.4,6,2.4c2.4,0,3.9-1.2,3.9-2.9v0c0-1.6-0.9-2.5-4.6-3.3
	c-4.1-0.9-5.9-2.1-5.9-5v0c0-2.7,2.4-4.7,5.8-4.7c2.6,0,4.4,0.7,6.2,2.1l-1.2,1.5c-1.6-1.3-3.3-1.9-5.1-1.9c-2.3,0-3.8,1.2-3.8,2.8
	v0c0,1.6,0.9,2.5,4.8,3.3c3.9,0.8,5.7,2.2,5.7,4.9v0c0,3-2.5,4.9-6,4.9C730.4,412,728.1,411,726,409.2z"/>
<path class="st3" d="M742.5,403.1L742.5,403.1c0-4.8,3.7-9,9-9c5.4,0,9,4.1,9,8.9v0c0,4.8-3.7,8.9-9,8.9
	C746.1,412,742.5,407.9,742.5,403.1z M758.4,403.1L758.4,403.1c0-4-2.9-7.2-7-7.2s-6.9,3.2-6.9,7.1v0c0,3.9,2.9,7.1,7,7.1
	S758.4,407.1,758.4,403.1z"/>
<path class="st3" d="M764.7,394.5h2v15.4h9.9v1.8h-11.9V394.5z"/>
<path class="st3" d="M779.5,404.5v-10h2v9.9c0,3.7,2,5.8,5.4,5.8c3.3,0,5.3-1.9,5.3-5.7v-10h2v9.9c0,5-2.9,7.6-7.4,7.6
	C782.5,412,779.5,409.4,779.5,404.5z"/>
<path class="st3" d="M803.6,396.3h-5.9v-1.8h13.9v1.8h-5.9v15.4h-2V396.3z"/>
<path class="st3" d="M815.4,394.5h2v17.2h-2V394.5z"/>
<path class="st3" d="M821.8,403.1L821.8,403.1c0-4.8,3.7-9,9-9c5.4,0,9,4.1,9,8.9v0c0,4.8-3.7,8.9-9,8.9
	C825.4,412,821.8,407.9,821.8,403.1z M837.7,403.1L837.7,403.1c0-4-2.9-7.2-7-7.2s-6.9,3.2-6.9,7.1v0c0,3.9,2.9,7.1,7,7.1
	S837.7,407.1,837.7,403.1z"/>
<path class="st3" d="M844,394.5h1.9l11.1,13.8v-13.8h1.9v17.2h-1.6L846,397.6v14.1H844V394.5z"/>
<path class="st3" d="M862.8,409.2l1.2-1.4c1.8,1.6,3.6,2.4,6,2.4c2.4,0,3.9-1.2,3.9-2.9v0c0-1.6-0.9-2.5-4.6-3.3
	c-4.1-0.9-5.9-2.1-5.9-5v0c0-2.7,2.4-4.7,5.8-4.7c2.6,0,4.4,0.7,6.2,2.1l-1.2,1.5c-1.6-1.3-3.3-1.9-5.1-1.9c-2.3,0-3.8,1.2-3.8,2.8
	v0c0,1.6,0.9,2.5,4.8,3.3c3.9,0.8,5.7,2.2,5.7,4.9v0c0,3-2.5,4.9-6,4.9C867.2,412,864.9,411,862.8,409.2z"/>
<line class="st8" x1="726" y1="384.5" x2="876" y2="384.5"/>
</svg>
