<?xml version="1.0" encoding="utf-8"?>
<!-- Generator: Adobe Illustrator 19.1.0, SVG Export Plug-In . SVG Version: 6.00 Build 0)  -->
<svg version="1.1" id="Layer_1" xmlns="http://www.w3.org/2000/svg" xmlns:xlink="http://www.w3.org/1999/xlink" x="0px" y="0px"
	 viewBox="0 0 200 200" style="enable-background:new 0 0 200 200;" xml:space="preserve">
<style type="text/css">
	.st0{fill:#FDFDFD;stroke:#6EB5CC;stroke-width:5;stroke-miterlimit:10;}
	.st1{fill:#6EB5CC;}
	.st2{fill:#7744BB;}
</style>
<rect x="3" y="3" class="st0" width="194" height="160.6"/>
<path class="st1" d="M170.8,146.8l-7.6-5.9c3.2-3.8,4.9-8,4.9-12.5c0-2.9-1.1-4.4-2.8-4.4h-0.1c-1.7,0-2.6,1.3-3.9,6.5
	c-2,8.2-4.5,14.5-12.9,14.5h-0.1c-7.7,0-13.2-5.7-13.2-14.9c0-6.5,1.9-11.7,5.5-15.8l8.1,5.3c-2.6,3.5-4.1,7.4-4.1,10.8
	c0,2.6,1.2,3.9,2.6,3.9h0.1c1.9,0,2.7-1.3,4-6.7c2.1-8.9,5.1-14.4,12.8-14.4h0.1c8.4,0,13.4,6.2,13.4,15.6
	C177.6,135.6,175.3,142.1,170.8,146.8z"/>
<path class="st1" d="M135.7,107.8V97.1h41.2v10.7H135.7z"/>
<path class="st1" d="M145.7,80.6v11.6h-10V58.4h10v11.6h31.2v10.7H145.7z"/>
<path class="st1" d="M135.7,53.7v-31h9.7v20.4h6.2V24.7h9v18.5h6.5V22.5h9.7v31.3H135.7z"/>
<path d="M0,196.4l1.6-1.8c2.4,2.1,4.8,3.1,8,3.1c3.1,0,5.2-1.6,5.2-3.7v-0.1c0-2-1.2-3.2-6.1-4.2c-5.4-1.1-7.9-2.7-7.9-6.3v-0.1
	c0-3.4,3.2-6,7.7-6c3.4,0,5.9,0.9,8.2,2.7l-1.5,1.9c-2.2-1.7-4.4-2.4-6.8-2.4c-3,0-5,1.6-5,3.5v0.1c0,2.1,1.2,3.2,6.4,4.3
	c5.2,1.1,7.6,2.8,7.6,6.2v0.1c0,3.8-3.3,6.2-8,6.2C5.9,199.9,2.8,198.8,0,196.4z"/>
<path d="M21.9,188.7L21.9,188.7c0-6.1,4.9-11.4,12-11.4c7.1,0,11.9,5.2,11.9,11.3v0.1c0,6-4.9,11.3-12,11.3
	C26.7,200,21.9,194.8,21.9,188.7z M43.1,188.7L43.1,188.7c0-5-3.9-9.1-9.2-9.1s-9.2,4-9.2,9v0.1c0,5,3.9,9,9.2,9
	S43.1,193.7,43.1,188.7z"/>
<path d="M51.4,177.7h2.6v19.6h13.2v2.3H51.4V177.7z"/>
<path d="M71.1,190.4v-12.7h2.6v12.6c0,4.7,2.7,7.4,7.2,7.4c4.3,0,7.1-2.4,7.1-7.2v-12.7h2.6v12.6c0,6.4-3.9,9.7-9.8,9.7
	C75.1,200,71.1,196.6,71.1,190.4z"/>
<path d="M103.1,180h-7.9v-2.3h18.4v2.3h-7.9v19.6h-2.7V180z"/>
<path d="M118.8,177.7h2.6v21.9h-2.6V177.7z"/>
<path d="M127.3,188.7L127.3,188.7c0-6.1,4.9-11.4,12-11.4c7.1,0,11.9,5.2,11.9,11.3v0.1c0,6-4.9,11.3-12,11.3
	C132.1,200,127.3,194.8,127.3,188.7z M148.5,188.7L148.5,188.7c0-5-3.9-9.1-9.2-9.1s-9.2,4-9.2,9v0.1c0,5,3.9,9,9.2,9
	S148.5,193.7,148.5,188.7z"/>
<path d="M156.8,177.7h2.5l14.8,17.6v-17.6h2.6v21.9h-2.1l-15.1-18v18h-2.6V177.7z"/>
<path d="M181.7,196.4l1.6-1.8c2.4,2.1,4.8,3.1,8,3.1c3.1,0,5.2-1.6,5.2-3.7v-0.1c0-2-1.2-3.2-6.1-4.2c-5.4-1.1-7.9-2.7-7.9-6.3v-0.1
	c0-3.4,3.2-6,7.7-6c3.4,0,5.9,0.9,8.2,2.7l-1.5,1.9c-2.2-1.7-4.4-2.4-6.8-2.4c-3,0-5,1.6-5,3.5v0.1c0,2.1,1.2,3.2,6.4,4.3
	c5.2,1.1,7.6,2.8,7.6,6.2v0.1c0,3.8-3.3,6.2-8,6.2C187.6,199.9,184.5,198.8,181.7,196.4z"/>
<path class="st2" d="M26,22h21.3l0.2,102.4c0,0,0,3.1,4.4,2.9c4.1-0.2,4.1-2.3,4.1-2.3V22h22v101.9c0,0-1.8,18.8-26.8,19.3
	c-25,0.5-25.2-19.3-25.2-19.3V22z"/>
<path class="st2" d="M130.5,44.3c0,0,1.1-8.5-6.7-15.8c-7.7-7.3-18.7-6.5-18.7-6.5H81v121h22.4l0-44.9c0,0,14.6-0.4,20.7-5.7
	c5.3-4.7,6-8.4,6.4-9.9C131.2,79.3,130.5,44.3,130.5,44.3z M110.1,76.1c-0.6,1.9-1.6,3.4-2.4,4c-1.3,1-4.7,1.5-4.7,1.5V43H92.3
	l14.1-14.1l15,14.1h-11C110.3,43,110.7,74.2,110.1,76.1z"/>
</svg>
