<?xml version="1.0" encoding="utf-8"?>
<!-- Generator: Adobe Illustrator 19.1.0, SVG Export Plug-In . SVG Version: 6.00 Build 0)  -->
<svg version="1.1" id="Layer_1" xmlns="http://www.w3.org/2000/svg" xmlns:xlink="http://www.w3.org/1999/xlink" x="0px" y="0px"
	 viewBox="242 560 475 292.6" style="enable-background:new 242 560 475 292.6;" xml:space="preserve">
<style type="text/css">
	.st0{clip-path:url(#SVGID_2_);fill:none;stroke:#231F20;stroke-width:30.861;}
	.st1{fill:#6B0000;}
	.st2{fill:#D1232A;}
	.st3{clip-path:url(#SVGID_4_);fill:#929497;}
	.st4{fill:#A6A8AB;}
	.st5{clip-path:url(#SVGID_6_);fill:#626366;}
	.st6{clip-path:url(#SVGID_8_);fill:#A6A8AB;}
	.st7{clip-path:url(#SVGID_10_);fill:#A6A8AB;}
	.st8{clip-path:url(#SVGID_12_);fill:#D1232A;}
	.st9{clip-path:url(#SVGID_14_);fill:#A6A8AB;}
	.st10{clip-path:url(#SVGID_16_);fill:#D1232A;}
	.st11{clip-path:url(#SVGID_18_);fill:#A6A8AB;}
	.st12{clip-path:url(#SVGID_20_);fill:#D1232A;}
	.st13{clip-path:url(#SVGID_22_);fill:#A6A8AB;}
	.st14{clip-path:url(#SVGID_24_);fill:#404041;}
	.st15{clip-path:url(#SVGID_26_);}
	.st16{fill:#FFFFFF;}
	.st17{clip-path:url(#SVGID_28_);}
</style>
<g>
	<g>
		<defs>
			<rect id="SVGID_1_" x="242" y="560" width="475" height="292.6"/>
		</defs>
		<clipPath id="SVGID_2_">
			<use xlink:href="#SVGID_1_"  style="overflow:visible;"/>
		</clipPath>
		<path class="st0" d="M505.1,771.6c0,0-6.7,10.2-19.4,1.1c-12.7-9-15.5-20.5-10.4-25.2c5.2-4.7,10.8-10,16.8-17
			c7.4-8.7,19.7-16.2,19.4-24.9c-0.3-8.7-4.5-9.5-16.8-10.3c-12.3-0.8-22.6,0.8-22.6,0.8"/>
	</g>
</g>
<polygon class="st1" points="243.2,824.1 370.8,852.6 370.8,669.3 242,666.9 "/>
<polygon class="st2" points="488.4,815.5 489.7,666.9 370,669.3 370.8,851.4 "/>
<polygon class="st1" points="242.5,667.4 370,671 489.2,667.4 370.4,661.9 "/>
<g>
	<g>
		<defs>
			<rect id="SVGID_3_" x="242" y="560" width="475" height="292.6"/>
		</defs>
		<clipPath id="SVGID_4_">
			<use xlink:href="#SVGID_3_"  style="overflow:visible;"/>
		</clipPath>
		<path class="st3" d="M347.5,653.6V666c0,0,14.3,2.1,20.5,2.1s21.1-2.1,21.1-2.1v-12.4H347.5z"/>
	</g>
</g>
<rect x="360.9" y="591.1" class="st4" width="16.3" height="63"/>
<g>
	<g>
		<defs>
			<rect id="SVGID_5_" x="242" y="560" width="475" height="292.6"/>
		</defs>
		<clipPath id="SVGID_6_">
			<use xlink:href="#SVGID_5_"  style="overflow:visible;"/>
		</clipPath>
		<path class="st5" d="M311,575.9l118.8-15.8v29.2l-116.5,9.3c0,0-7.9-0.4-8.9-9.3C303.4,580.3,311,575.9,311,575.9"/>
	</g>
</g>
<polygon class="st1" points="644.7,846.2 582.8,820.4 520.4,766.4 533,752.5 658.1,800.6 "/>
<polygon class="st1" points="689.3,844.2 644.4,813.5 638.2,791.2 661.5,780.3 701.6,798.5 "/>
<g>
	<g>
		<defs>
			<rect id="SVGID_7_" x="242" y="560" width="475" height="292.6"/>
		</defs>
		<clipPath id="SVGID_8_">
			<use xlink:href="#SVGID_7_"  style="overflow:visible;"/>
		</clipPath>
		<path class="st6" d="M695.7,844.6c11.8,0,21.3-10.4,21.3-23.3c0-12.9-9.5-23.3-21.3-23.3s-21.3,10.4-21.3,23.3
			C674.4,834.1,683.9,844.6,695.7,844.6"/>
	</g>
	<g>
		<defs>
			<rect id="SVGID_9_" x="242" y="560" width="475" height="292.6"/>
		</defs>
		<clipPath id="SVGID_10_">
			<use xlink:href="#SVGID_9_"  style="overflow:visible;"/>
		</clipPath>
		<path class="st7" d="M648.9,846.7c11.8,0,21.3-10.4,21.3-23.3s-9.5-23.3-21.3-23.3s-21.3,10.4-21.3,23.3
			C627.6,836.3,637.2,846.7,648.9,846.7"/>
	</g>
	<g>
		<defs>
			<rect id="SVGID_11_" x="242" y="560" width="475" height="292.6"/>
		</defs>
		<clipPath id="SVGID_12_">
			<use xlink:href="#SVGID_11_"  style="overflow:visible;"/>
		</clipPath>
		<path class="st8" d="M597.6,849.6L504,787.2c0,0-0.1-13.4,4.2-19.3c4.3-5.9,19.1-6.9,19.1-6.9l84.1,43.1L597.6,849.6z"/>
	</g>
	<g>
		<defs>
			<rect id="SVGID_13_" x="242" y="560" width="475" height="292.6"/>
		</defs>
		<clipPath id="SVGID_14_">
			<use xlink:href="#SVGID_13_"  style="overflow:visible;"/>
		</clipPath>
		<path class="st9" d="M603.3,849.8c11.8,0,21.3-10.4,21.3-23.3c0-12.9-9.5-23.3-21.3-23.3S582,813.6,582,826.5
			C582,839.3,591.5,849.8,603.3,849.8"/>
	</g>
	<g>
		<defs>
			<rect id="SVGID_15_" x="242" y="560" width="475" height="292.6"/>
		</defs>
		<clipPath id="SVGID_16_">
			<use xlink:href="#SVGID_15_"  style="overflow:visible;"/>
		</clipPath>
		<path class="st10" d="M672.9,804.7L557,748.1c0,0,10.7-14.1,15.8-17.3c5.5-3.5,16.8,0,16.8,0l95.1,30.6L672.9,804.7z"/>
	</g>
	<g>
		<defs>
			<rect id="SVGID_17_" x="242" y="560" width="475" height="292.6"/>
		</defs>
		<clipPath id="SVGID_18_">
			<use xlink:href="#SVGID_17_"  style="overflow:visible;"/>
		</clipPath>
		<path class="st11" d="M675.4,805.1c11.8,0,21.3-10.4,21.3-23.3c0-12.9-9.5-23.3-21.3-23.3s-21.3,10.4-21.3,23.3
			C654.1,794.6,663.6,805.1,675.4,805.1"/>
	</g>
	<g>
		<defs>
			<rect id="SVGID_19_" x="242" y="560" width="475" height="292.6"/>
		</defs>
		<clipPath id="SVGID_20_">
			<use xlink:href="#SVGID_19_"  style="overflow:visible;"/>
		</clipPath>
		<path class="st12" d="M625.4,806.8L527.3,758c0,0-5.9-10.4-1.5-18.8c4.5-8.4,18.3-9.9,18.3-9.9l91.1,32.1L625.4,806.8z"/>
	</g>
	<g>
		<defs>
			<rect id="SVGID_21_" x="242" y="560" width="475" height="292.6"/>
		</defs>
		<clipPath id="SVGID_22_">
			<use xlink:href="#SVGID_21_"  style="overflow:visible;"/>
		</clipPath>
		<path class="st13" d="M629.4,807.1c11.8,0,21.3-10.4,21.3-23.3c0-12.9-9.5-23.3-21.3-23.3s-21.3,10.4-21.3,23.3
			C608.1,796.7,617.6,807.1,629.4,807.1"/>
	</g>
	<g>
		<defs>
			<rect id="SVGID_23_" x="242" y="560" width="475" height="292.6"/>
		</defs>
		<clipPath id="SVGID_24_">
			<use xlink:href="#SVGID_23_"  style="overflow:visible;"/>
		</clipPath>
		<path class="st14" d="M429.7,588.8c5.5,0,9.9-6.2,9.9-13.9c0-7.7-4.4-13.9-9.9-13.9s-9.9,6.2-9.9,13.9
			C419.8,582.6,424.2,588.8,429.7,588.8"/>
	</g>
	<g>
		<defs>
			<rect id="SVGID_25_" x="242" y="560" width="475" height="292.6"/>
		</defs>
		<clipPath id="SVGID_26_">
			<use xlink:href="#SVGID_25_"  style="overflow:visible;"/>
		</clipPath>
		<g class="st15">
			<path class="st16" d="M253.3,768.2v-34l7.1,0.8v28.1l13.6,1.4v6L253.3,768.2z"/>
			<path class="st16" d="M297.5,772.8l-19.4-2v-34l19.4,2v5.9l-12.2-1.3v7.5l11.4,1.2v5.9l-11.4-1.2v8.8l12.2,1.3V772.8z"/>
			<path class="st16" d="M317.5,774.9l-7.1-0.8v-28l-9.1-1v-6l25.4,2.7v6l-9.1-1L317.5,774.9L317.5,774.9z"/>
			<path class="st16" d="M336,742.8l0.3,0.5c-0.8,3-2.1,6.5-4.1,10.7l-5-0.5c1.1-4.5,1.8-8.3,2.3-11.4L336,742.8z"/>
			<path class="st16" d="M360,769.9c0,3.1-1.1,5.4-3.3,6.9c-2.2,1.5-5.2,2.1-9.1,1.7c-3.6-0.4-6.8-1.4-9.5-3v-6.7
				c2.3,1.3,4.2,2.2,5.8,2.8s3,0.9,4.3,1.1c1.6,0.2,2.8,0,3.6-0.5s1.3-1.4,1.3-2.6c0-0.7-0.2-1.3-0.6-1.8s-0.9-1.1-1.6-1.7
				s-2.2-1.5-4.4-2.8c-2.1-1.2-3.6-2.3-4.6-3.3s-1.8-2.1-2.5-3.4c-0.6-1.3-0.9-2.7-0.9-4.3c0-3,1-5.3,3-6.8s4.8-2.1,8.4-1.7
				c1.7,0.2,3.4,0.6,5,1.2c1.6,0.6,3.2,1.3,5,2.3l-2.3,5.4c-1.8-0.9-3.3-1.6-4.5-2s-2.3-0.7-3.5-0.8c-1.4-0.1-2.4,0.1-3.1,0.6
				c-0.7,0.6-1.1,1.4-1.1,2.4c0,0.6,0.1,1.2,0.4,1.7s0.8,1,1.4,1.5s2.1,1.5,4.5,2.9c3.1,1.9,5.3,3.6,6.5,5.3
				C359.5,765.8,360,767.7,360,769.9z"/>
		</g>
	</g>
	<g>
		<defs>
			<rect id="SVGID_27_" x="242" y="560" width="475" height="292.6"/>
		</defs>
		<clipPath id="SVGID_28_">
			<use xlink:href="#SVGID_27_"  style="overflow:visible;"/>
		</clipPath>
		<g class="st17">
			<path class="st16" d="M405.5,758.3c0,5.6-1.6,10.1-4.7,13.4c-3.2,3.3-7.7,5.3-13.7,5.9l-9.5,1v-34l10.6-1.1
				c5.5-0.6,9.8,0.4,12.8,3.1C404,749.1,405.5,753.1,405.5,758.3z M398.1,759.3c0-7.3-3.2-10.6-9.6-10l-3.8,0.4v22.2l3.1-0.3
				C394.7,770.9,398.1,766.8,398.1,759.3z"/>
			<path class="st16" d="M438.3,755.2c0,5.6-1.4,10.1-4.1,13.4c-2.8,3.3-6.7,5.2-11.9,5.8s-9.1-0.6-11.9-3.3
				c-2.8-2.7-4.1-6.9-4.1-12.6s1.4-10.1,4.2-13.4c2.8-3.3,6.7-5.2,11.9-5.7c5.2-0.5,9.1,0.5,11.9,3.3
				C437.1,745.5,438.3,749.5,438.3,755.2z M413.8,757.7c0,3.8,0.7,6.6,2.1,8.4c1.4,1.8,3.6,2.5,6.4,2.2c5.7-0.6,8.5-4.7,8.5-12.4
				c0-7.7-2.8-11.2-8.5-10.6c-2.8,0.3-5,1.5-6.4,3.6S413.8,753.9,413.8,757.7z"/>
			<path class="st16" d="M452,770.8v-34l7.1-0.8v34L452,770.8z"/>
			<path class="st16" d="M477.7,768.1l-7.1,0.8v-28l-9.1,1v-6l25.4-2.7v6l-9.1,1L477.7,768.1L477.7,768.1z"/>
		</g>
	</g>
</g>
</svg>
